<?xml version="1.0" encoding="us-ascii" standalone="no"?><svg xmlns="http://www.w3.org/2000/svg" xmlns:xlink="http://www.w3.org/1999/xlink" contentStyleType="text/css" height="758px" preserveAspectRatio="none" style="width:1400px;height:758px;background:#FFFFFF;" version="1.1" viewBox="0 0 1400 758" width="1400px" zoomAndPan="magnify"><defs/><g><text fill="#000000" font-family="sans-serif" font-size="14" font-weight="bold" lengthAdjust="spacing" textLength="375" x="505.5" y="24.9659">Vis&#227;o de Alto N&#237;vel da Arquitetura Monol&#237;tica Modular</text><!--cluster Aplica??o Monol?tica--><g id="cluster_Aplica&#231;&#227;o Monol&#237;tica"><path d="M8.5,46.6699 L152.5,46.6699 A3.75,3.75 0 0 1 155,49.1699 L162,71.7378 L1390.5,71.7378 A2.5,2.5 0 0 1 1393,74.2378 L1393,721.1699 A2.5,2.5 0 0 1 1390.5,723.6699 L8.5,723.6699 A2.5,2.5 0 0 1 6,721.1699 L6,49.1699 A2.5,2.5 0 0 1 8.5,46.6699 " fill="none" style="stroke:#000000;stroke-width:1.5;"/><line style="stroke:#000000;stroke-width:1.5;" x1="6" x2="162" y1="71.7378" y2="71.7378"/><text fill="#000000" font-family="sans-serif" font-size="14" font-weight="bold" lengthAdjust="spacing" textLength="143" x="10" y="63.6358">Aplica&#231;&#227;o Monol&#237;tica</text></g><!--cluster Shared--><g id="cluster_Shared"><rect fill="#D3D3D3" height="153" rx="2.5" ry="2.5" style="stroke:#181818;stroke-width:1.0;" width="229" x="1014" y="100.6699"/><rect fill="#D3D3D3" height="10" style="stroke:#181818;stroke-width:1.0;" width="15" x="1223" y="105.6699"/><rect fill="#D3D3D3" height="2" style="stroke:#181818;stroke-width:1.0;" width="4" x="1221" y="107.6699"/><rect fill="#D3D3D3" height="2" style="stroke:#181818;stroke-width:1.0;" width="4" x="1221" y="111.6699"/><text fill="#000000" font-family="sans-serif" font-size="14" font-weight="bold" lengthAdjust="spacing" textLength="96" x="1080.5" y="128.6358">Shared Kernel</text><text fill="#000000" font-family="sans-serif" font-size="14" font-weight="bold" lengthAdjust="spacing" textLength="70" x="1093.5" y="147.7038">(@shared)</text></g><!--cluster ClientAdm--><g id="cluster_ClientAdm"><rect fill="#E6E6FA" height="137" rx="2.5" ry="2.5" style="stroke:#181818;stroke-width:1.0;" width="263" x="473" y="335.6699"/><rect fill="#E6E6FA" height="10" style="stroke:#181818;stroke-width:1.0;" width="15" x="716" y="340.6699"/><rect fill="#E6E6FA" height="2" style="stroke:#181818;stroke-width:1.0;" width="4" x="714" y="342.6699"/><rect fill="#E6E6FA" height="2" style="stroke:#181818;stroke-width:1.0;" width="4" x="714" y="346.6699"/><text fill="#000000" font-family="sans-serif" font-size="14" font-weight="bold" lengthAdjust="spacing" textLength="78" x="565.5" y="363.6358">Client-ADM</text><text fill="#000000" font-family="sans-serif" font-size="14" font-weight="bold" lengthAdjust="spacing" textLength="138" x="535.5" y="382.7038">(Gest&#227;o de Clientes)</text></g><!--cluster ProductAdm--><g id="cluster_ProductAdm"><rect fill="#F5FFFA" height="137" rx="2.5" ry="2.5" style="stroke:#181818;stroke-width:1.0;" width="277" x="949" y="554.6699"/><rect fill="#F5FFFA" height="10" style="stroke:#181818;stroke-width:1.0;" width="15" x="1206" y="559.6699"/><rect fill="#F5FFFA" height="2" style="stroke:#181818;stroke-width:1.0;" width="4" x="1204" y="561.6699"/><rect fill="#F5FFFA" height="2" style="stroke:#181818;stroke-width:1.0;" width="4" x="1204" y="565.6699"/><text fill="#000000" font-family="sans-serif" font-size="14" font-weight="bold" lengthAdjust="spacing" textLength="93" x="1041" y="582.6358">Product-ADM</text><text fill="#000000" font-family="sans-serif" font-size="14" font-weight="bold" lengthAdjust="spacing" textLength="219" x="978" y="601.7038">(Gest&#227;o de Produtos e Estoque)</text></g><!--cluster StoreCatalog--><g id="cluster_StoreCatalog"><rect fill="#FFFFE0" height="137" rx="2.5" ry="2.5" style="stroke:#181818;stroke-width:1.0;" width="281" x="1070" y="335.6699"/><rect fill="#FFFFE0" height="10" style="stroke:#181818;stroke-width:1.0;" width="15" x="1331" y="340.6699"/><rect fill="#FFFFE0" height="2" style="stroke:#181818;stroke-width:1.0;" width="4" x="1329" y="342.6699"/><rect fill="#FFFFE0" height="2" style="stroke:#181818;stroke-width:1.0;" width="4" x="1329" y="346.6699"/><text fill="#000000" font-family="sans-serif" font-size="14" font-weight="bold" lengthAdjust="spacing" textLength="94" x="1163.5" y="363.6358">Store Catalog</text><text fill="#000000" font-family="sans-serif" font-size="14" font-weight="bold" lengthAdjust="spacing" textLength="183" x="1119" y="382.7038">(Visualiza&#231;&#227;o de Produtos)</text></g><!--cluster Payment--><g id="cluster_Payment"><rect fill="#E0FFFF" height="137" rx="2.5" ry="2.5" style="stroke:#181818;stroke-width:1.0;" width="254" x="776" y="335.6699"/><rect fill="#E0FFFF" height="10" style="stroke:#181818;stroke-width:1.0;" width="15" x="1010" y="340.6699"/><rect fill="#E0FFFF" height="2" style="stroke:#181818;stroke-width:1.0;" width="4" x="1008" y="342.6699"/><rect fill="#E0FFFF" height="2" style="stroke:#181818;stroke-width:1.0;" width="4" x="1008" y="346.6699"/><text fill="#000000" font-family="sans-serif" font-size="14" font-weight="bold" lengthAdjust="spacing" textLength="62" x="872" y="363.6358">Payment</text><text fill="#000000" font-family="sans-serif" font-size="14" font-weight="bold" lengthAdjust="spacing" textLength="219" x="793.5" y="382.7038">(Processamento de Transa&#231;&#245;es)</text></g><!--cluster Invoice--><g id="cluster_Invoice"><rect fill="#FAFAD2" height="137" rx="2.5" ry="2.5" style="stroke:#181818;stroke-width:1.0;" width="244" x="189" y="335.6699"/><rect fill="#FAFAD2" height="10" style="stroke:#181818;stroke-width:1.0;" width="15" x="413" y="340.6699"/><rect fill="#FAFAD2" height="2" style="stroke:#181818;stroke-width:1.0;" width="4" x="411" y="342.6699"/><rect fill="#FAFAD2" height="2" style="stroke:#181818;stroke-width:1.0;" width="4" x="411" y="346.6699"/><text fill="#000000" font-family="sans-serif" font-size="14" font-weight="bold" lengthAdjust="spacing" textLength="50" x="286" y="363.6358">Invoice</text><text fill="#000000" font-family="sans-serif" font-size="14" font-weight="bold" lengthAdjust="spacing" textLength="144" x="239" y="382.7038">(Emiss&#227;o de Faturas)</text></g><!--entity OrderOrchestrator--><g id="elem_OrderOrchestrator"><rect fill="#F08080" height="68.1358" rx="2.5" ry="2.5" style="stroke:#181818;stroke-width:0.5;" width="267" x="280.5" y="163.6699"/><rect fill="#F08080" height="10" style="stroke:#181818;stroke-width:0.5;" width="15" x="527.5" y="168.6699"/><rect fill="#F08080" height="2" style="stroke:#181818;stroke-width:0.5;" width="4" x="525.5" y="170.6699"/><rect fill="#F08080" height="2" style="stroke:#181818;stroke-width:0.5;" width="4" x="525.5" y="174.6699"/><text fill="#000000" font-family="sans-serif" font-size="14" lengthAdjust="spacing" textLength="107" x="328" y="198.6358">Checkout/Order</text><text fill="#000000" font-family="sans-serif" font-size="14" lengthAdjust="spacing" textLength="4" x="435" y="198.6358">&#160;</text><text fill="#000000" font-family="sans-serif" font-size="14" lengthAdjust="spacing" textLength="51" x="439" y="198.6358">Module</text><text fill="#000000" font-family="sans-serif" font-size="14" lengthAdjust="spacing" textLength="96" x="295.5" y="217.7038">(Orquestrador</text><text fill="#000000" font-family="sans-serif" font-size="14" lengthAdjust="spacing" textLength="4" x="391.5" y="217.7038">&#160;</text><text fill="#000000" font-family="sans-serif" font-size="14" lengthAdjust="spacing" textLength="49" x="395.5" y="217.7038">Central</text><text fill="#000000" font-family="sans-serif" font-size="14" lengthAdjust="spacing" textLength="4" x="444.5" y="217.7038">&#160;</text><text fill="#000000" font-family="sans-serif" font-size="14" lengthAdjust="spacing" textLength="17" x="448.5" y="217.7038">de</text><text fill="#000000" font-family="sans-serif" font-size="14" lengthAdjust="spacing" textLength="4" x="465.5" y="217.7038">&#160;</text><text fill="#000000" font-family="sans-serif" font-size="14" lengthAdjust="spacing" textLength="53" x="469.5" y="217.7038">Vendas)</text></g><!--class SharedInterfaces--><g id="elem_SharedInterfaces"><rect codeLine="14" fill="#F1F1F1" height="64.1358" id="SharedInterfaces" rx="2.5" ry="2.5" style="stroke:#181818;stroke-width:0.5;" width="162" x="1057" y="165.6699"/><ellipse cx="1072" cy="189.7378" fill="#B4A7E5" rx="11" ry="11" style="stroke:#181818;stroke-width:1.0;"/><path d="M1067.9219,185.5034 L1067.9219,183.3472 L1075.3125,183.3472 L1075.3125,185.5034 L1072.8438,185.5034 L1072.8438,193.5816 L1075.3125,193.5816 L1075.3125,195.7378 L1067.9219,195.7378 L1067.9219,193.5816 L1070.3906,193.5816 L1070.3906,185.5034 L1067.9219,185.5034 Z " fill="#000000"/><text fill="#000000" font-family="sans-serif" font-size="14" font-style="italic" lengthAdjust="spacing" textLength="29" x="1111.5" y="185.6358">Base</text><text fill="#000000" font-family="sans-serif" font-size="14" font-style="italic" lengthAdjust="spacing" textLength="4" x="1140.5" y="185.6358">&#160;</text><text fill="#000000" font-family="sans-serif" font-size="14" font-style="italic" lengthAdjust="spacing" textLength="46" x="1144.5" y="185.6358">Entities</text><text fill="#000000" font-family="sans-serif" font-size="14" font-style="italic" lengthAdjust="spacing" textLength="9" x="1086" y="204.7038">&amp;</text><text fill="#000000" font-family="sans-serif" font-size="14" font-style="italic" lengthAdjust="spacing" textLength="4" x="1095" y="204.7038">&#160;</text><text fill="#000000" font-family="sans-serif" font-size="14" font-style="italic" lengthAdjust="spacing" textLength="51" x="1099" y="204.7038">UseCase</text><text fill="#000000" font-family="sans-serif" font-size="14" font-style="italic" lengthAdjust="spacing" textLength="4" x="1150" y="204.7038">&#160;</text><text fill="#000000" font-family="sans-serif" font-size="14" font-style="italic" lengthAdjust="spacing" textLength="62" x="1154" y="204.7038">Interfaces</text><line style="stroke:#181818;stroke-width:0.5;" x1="1058" x2="1218" y1="213.8057" y2="213.8057"/><line style="stroke:#181818;stroke-width:0.5;" x1="1058" x2="1218" y1="221.8057" y2="221.8057"/></g><!--class ClientAdmFacade--><g id="elem_ClientAdmFacade"><rect codeLine="20" fill="#F1F1F1" height="48" id="ClientAdmFacade" rx="2.5" ry="2.5" style="stroke:#181818;stroke-width:0.5;" width="196" x="497" y="400.6699"/><ellipse cx="512" cy="416.6699" fill="#B4A7E5" rx="11" ry="11" style="stroke:#181818;stroke-width:1.0;"/><path d="M507.9219,412.4355 L507.9219,410.2793 L515.3125,410.2793 L515.3125,412.4355 L512.8438,412.4355 L512.8438,420.5136 L515.3125,420.5136 L515.3125,422.6699 L507.9219,422.6699 L507.9219,420.5136 L510.3906,420.5136 L510.3906,412.4355 L507.9219,412.4355 Z " fill="#000000"/><text fill="#000000" font-family="sans-serif" font-size="14" font-style="italic" lengthAdjust="spacing" textLength="164" x="526" y="422.1019">ClientAdmFacadeInterface</text><line style="stroke:#181818;stroke-width:0.5;" x1="498" x2="692" y1="432.6699" y2="432.6699"/><line style="stroke:#181818;stroke-width:0.5;" x1="498" x2="692" y1="440.6699" y2="440.6699"/></g><!--class ProductAdmFacade--><g id="elem_ProductAdmFacade"><rect codeLine="24" fill="#F1F1F1" height="48" id="ProductAdmFacade" rx="2.5" ry="2.5" style="stroke:#181818;stroke-width:0.5;" width="209" x="973.5" y="619.6699"/><ellipse cx="988.5" cy="635.6699" fill="#B4A7E5" rx="11" ry="11" style="stroke:#181818;stroke-width:1.0;"/><path d="M984.4219,631.4355 L984.4219,629.2793 L991.8125,629.2793 L991.8125,631.4355 L989.3438,631.4355 L989.3438,639.5136 L991.8125,639.5136 L991.8125,641.6699 L984.4219,641.6699 L984.4219,639.5136 L986.8906,639.5136 L986.8906,631.4355 L984.4219,631.4355 Z " fill="#000000"/><text fill="#000000" font-family="sans-serif" font-size="14" font-style="italic" lengthAdjust="spacing" textLength="177" x="1002.5" y="641.1019">ProductAdmFacadeInterface</text><line style="stroke:#181818;stroke-width:0.5;" x1="974.5" x2="1181.5" y1="651.6699" y2="651.6699"/><line style="stroke:#181818;stroke-width:0.5;" x1="974.5" x2="1181.5" y1="659.6699" y2="659.6699"/></g><!--class StoreCatalogFacade--><g id="elem_StoreCatalogFacade"><rect codeLine="28" fill="#F1F1F1" height="48" id="StoreCatalogFacade" rx="2.5" ry="2.5" style="stroke:#181818;stroke-width:0.5;" width="214" x="1113" y="400.6699"/><ellipse cx="1128" cy="416.6699" fill="#B4A7E5" rx="11" ry="11" style="stroke:#181818;stroke-width:1.0;"/><path d="M1123.9219,412.4355 L1123.9219,410.2793 L1131.3125,410.2793 L1131.3125,412.4355 L1128.8438,412.4355 L1128.8438,420.5136 L1131.3125,420.5136 L1131.3125,422.6699 L1123.9219,422.6699 L1123.9219,420.5136 L1126.3906,420.5136 L1126.3906,412.4355 L1123.9219,412.4355 Z " fill="#000000"/><text fill="#000000" font-family="sans-serif" font-size="14" font-style="italic" lengthAdjust="spacing" textLength="182" x="1142" y="422.1019">StoreCatalogFacadeInterface</text><line style="stroke:#181818;stroke-width:0.5;" x1="1114" x2="1326" y1="432.6699" y2="432.6699"/><line style="stroke:#181818;stroke-width:0.5;" x1="1114" x2="1326" y1="440.6699" y2="440.6699"/></g><!--class PaymentFacade--><g id="elem_PaymentFacade"><rect codeLine="32" fill="#F1F1F1" height="48" id="PaymentFacade" rx="2.5" ry="2.5" style="stroke:#181818;stroke-width:0.5;" width="187" x="799.5" y="400.6699"/><ellipse cx="814.5" cy="416.6699" fill="#B4A7E5" rx="11" ry="11" style="stroke:#181818;stroke-width:1.0;"/><path d="M810.4219,412.4355 L810.4219,410.2793 L817.8125,410.2793 L817.8125,412.4355 L815.3438,412.4355 L815.3438,420.5136 L817.8125,420.5136 L817.8125,422.6699 L810.4219,422.6699 L810.4219,420.5136 L812.8906,420.5136 L812.8906,412.4355 L810.4219,412.4355 Z " fill="#000000"/><text fill="#000000" font-family="sans-serif" font-size="14" font-style="italic" lengthAdjust="spacing" textLength="155" x="828.5" y="422.1019">PaymentFacadeInterface</text><line style="stroke:#181818;stroke-width:0.5;" x1="800.5" x2="985.5" y1="432.6699" y2="432.6699"/><line style="stroke:#181818;stroke-width:0.5;" x1="800.5" x2="985.5" y1="440.6699" y2="440.6699"/></g><!--class InvoiceFacade--><g id="elem_InvoiceFacade"><rect codeLine="36" fill="#F1F1F1" height="48" id="InvoiceFacade" rx="2.5" ry="2.5" style="stroke:#181818;stroke-width:0.5;" width="177" x="212.5" y="400.6699"/><ellipse cx="227.5" cy="416.6699" fill="#B4A7E5" rx="11" ry="11" style="stroke:#181818;stroke-width:1.0;"/><path d="M223.4219,412.4355 L223.4219,410.2793 L230.8125,410.2793 L230.8125,412.4355 L228.3438,412.4355 L228.3438,420.5136 L230.8125,420.5136 L230.8125,422.6699 L223.4219,422.6699 L223.4219,420.5136 L225.8906,420.5136 L225.8906,412.4355 L223.4219,412.4355 Z " fill="#000000"/><text fill="#000000" font-family="sans-serif" font-size="14" font-style="italic" lengthAdjust="spacing" textLength="145" x="241.5" y="422.1019">InvoiceFacadeInterface</text><line style="stroke:#181818;stroke-width:0.5;" x1="213.5" x2="388.5" y1="432.6699" y2="432.6699"/><line style="stroke:#181818;stroke-width:0.5;" x1="213.5" x2="388.5" y1="440.6699" y2="440.6699"/></g><!--link StoreCatalog to ProductAdmFacade--><g id="link_StoreCatalog_ProductAdmFacade"><path codeLine="46" d="M1078,473.1597 C1078,473.7179 1078,474.2792 1078,474.8437 C1078,483.8749 1078,493.698 1078,503.9099 C1078,544.7574 1078,585.8249 1078,613.3099 " fill="none" id="StoreCatalog-to-ProductAdmFacade" style="stroke:#000000;stroke-width:1.0;"/><polygon fill="#000000" points="1078,619.3099,1082,610.3099,1078,614.3099,1074,610.3099,1078,619.3099" style="stroke:#000000;stroke-width:1.0;"/><text fill="#000000" font-family="sans-serif" font-size="12" lengthAdjust="spacing" textLength="49" x="1079" y="510.498">Consulta</text><text fill="#000000" font-family="sans-serif" font-size="12" lengthAdjust="spacing" textLength="3" x="1128" y="510.498">&#160;</text><text fill="#000000" font-family="sans-serif" font-size="12" lengthAdjust="spacing" textLength="45" x="1131" y="510.498">Estoque</text><text fill="#000000" font-family="sans-serif" font-size="12" lengthAdjust="spacing" textLength="3" x="1176" y="510.498">&#160;</text><text fill="#000000" font-family="sans-serif" font-size="12" lengthAdjust="spacing" textLength="7" x="1179" y="510.498">e</text><text fill="#000000" font-family="sans-serif" font-size="12" lengthAdjust="spacing" textLength="50" x="1107.5" y="526.8421">Detalhes</text></g><!--link OrderOrchestrator to ClientAdmFacade--><g id="link_OrderOrchestrator_ClientAdmFacade"><path codeLine="49" d="M446.09,231.7699 C459.14,245.6499 474.14,262.1299 487,277.6699 C521.68,319.5699 555.2275,366.3688 575.6575,395.6588 " fill="none" id="OrderOrchestrator-to-ClientAdmFacade" style="stroke:#000000;stroke-width:1.0;"/><polygon fill="#000000" points="579.09,400.5799,577.222,390.9098,576.2296,396.4789,570.6604,395.4865,579.09,400.5799" style="stroke:#000000;stroke-width:1.0;"/><text fill="#000000" font-family="sans-serif" font-size="12" lengthAdjust="spacing" textLength="10" x="512" y="299.498">1.</text><text fill="#000000" font-family="sans-serif" font-size="12" lengthAdjust="spacing" textLength="3" x="522" y="299.498">&#160;</text><text fill="#000000" font-family="sans-serif" font-size="12" lengthAdjust="spacing" textLength="72" x="525" y="299.498">Busca/Valida</text><text fill="#000000" font-family="sans-serif" font-size="12" lengthAdjust="spacing" textLength="3" x="597" y="299.498">&#160;</text><text fill="#000000" font-family="sans-serif" font-size="12" lengthAdjust="spacing" textLength="39" x="600" y="299.498">Cliente</text></g><!--link OrderOrchestrator to ProductAdmFacade--><g id="link_OrderOrchestrator_ProductAdmFacade"><path codeLine="50" d="M280.35,212.5699 C211.06,227.3199 132.11,257.6199 89,319.6699 C46.14,381.3599 40.14,431.6199 89,488.6699 C202.1,620.7399 736.7603,640.3698 967.3903,642.6798 " fill="none" id="OrderOrchestrator-to-ProductAdmFacade" style="stroke:#000000;stroke-width:1.0;"/><polygon fill="#000000" points="973.39,642.7399,964.4305,638.65,968.3903,642.6898,964.3504,646.6496,973.39,642.7399" style="stroke:#000000;stroke-width:1.0;"/><text fill="#000000" font-family="sans-serif" font-size="12" lengthAdjust="spacing" textLength="10" x="90" y="429.498">2.</text><text fill="#000000" font-family="sans-serif" font-size="12" lengthAdjust="spacing" textLength="3" x="100" y="429.498">&#160;</text><text fill="#000000" font-family="sans-serif" font-size="12" lengthAdjust="spacing" textLength="45" x="103" y="429.498">Reserva</text><text fill="#000000" font-family="sans-serif" font-size="12" lengthAdjust="spacing" textLength="3" x="148" y="429.498">&#160;</text><text fill="#000000" font-family="sans-serif" font-size="12" lengthAdjust="spacing" textLength="45" x="151" y="429.498">Estoque</text></g><!--link OrderOrchestrator to PaymentFacade--><g id="link_OrderOrchestrator_PaymentFacade"><path codeLine="51" d="M531.75,231.7499 C596.58,252.4099 677.2,282.2199 744,319.6699 C787.62,344.1199 829.5742,374.5147 858.8342,396.8947 " fill="none" id="OrderOrchestrator-to-PaymentFacade" style="stroke:#000000;stroke-width:1.0;"/><polygon fill="#000000" points="863.6,400.5399,858.8815,391.8949,859.6285,397.5022,854.0212,398.2493,863.6,400.5399" style="stroke:#000000;stroke-width:1.0;"/><text fill="#000000" font-family="sans-serif" font-size="12" lengthAdjust="spacing" textLength="10" x="728" y="299.498">3.</text><text fill="#000000" font-family="sans-serif" font-size="12" lengthAdjust="spacing" textLength="3" x="738" y="299.498">&#160;</text><text fill="#000000" font-family="sans-serif" font-size="12" lengthAdjust="spacing" textLength="51" x="741" y="299.498">Processa</text><text fill="#000000" font-family="sans-serif" font-size="12" lengthAdjust="spacing" textLength="3" x="792" y="299.498">&#160;</text><text fill="#000000" font-family="sans-serif" font-size="12" lengthAdjust="spacing" textLength="64" x="795" y="299.498">Pagamento</text></g><!--link OrderOrchestrator to InvoiceFacade--><g id="link_OrderOrchestrator_InvoiceFacade"><path codeLine="52" d="M393.03,232.0299 C384.58,245.9399 374.97,262.3899 367,277.6699 C344.88,320.0899 325.0059,365.8849 312.8259,394.9949 " fill="none" id="OrderOrchestrator-to-InvoiceFacade" style="stroke:#000000;stroke-width:1.0;"/><polygon fill="#000000" points="310.51,400.5299,317.6739,393.7713,312.4399,395.9174,310.2939,390.6834,310.51,400.5299" style="stroke:#000000;stroke-width:1.0;"/><text fill="#000000" font-family="sans-serif" font-size="12" lengthAdjust="spacing" textLength="10" x="368" y="291.498">4.</text><text fill="#000000" font-family="sans-serif" font-size="12" lengthAdjust="spacing" textLength="3" x="378" y="291.498">&#160;</text><text fill="#000000" font-family="sans-serif" font-size="12" lengthAdjust="spacing" textLength="28" x="381" y="291.498">Gera</text><text fill="#000000" font-family="sans-serif" font-size="12" lengthAdjust="spacing" textLength="3" x="409" y="291.498">&#160;</text><text fill="#000000" font-family="sans-serif" font-size="12" lengthAdjust="spacing" textLength="36" x="412" y="291.498">Fatura</text><text fill="#000000" font-family="sans-serif" font-size="12" lengthAdjust="spacing" textLength="3" x="448" y="291.498">&#160;</text><text fill="#000000" font-family="sans-serif" font-size="12" lengthAdjust="spacing" textLength="31" x="451" y="291.498">(ap&#243;s</text><text fill="#000000" font-family="sans-serif" font-size="12" lengthAdjust="spacing" textLength="68" x="391" y="307.8421">pagamento)</text></g><!--reverse link Shared to ClientAdm--><!--reverse link Shared to ProductAdm--><!--reverse link Shared to StoreCatalog--><!--reverse link Shared to Payment--><!--reverse link Shared to Invoice--><text fill="#000000" font-family="sans-serif" font-size="14" lengthAdjust="spacing" textLength="481" x="452.5" y="745.6358">Comunica&#231;&#227;o baseada em Facades entre Contextos (Clean Architecture)</text><!--SRC=[VLNBRkCs5DtxA-vaW8wpS88-La4HLB6T81Xx5CHkWABJ1IlTsiHGf4QaCaxRMNNHLPVzWYwA5iXgq2_GZ_LGecmvKM88iAZxuBcNvnw-a3fHPShqjIYIjSo4u-EeVJiT2ANCXqnkf5uD1g_eUZgFgz-hts8Qn_EhsNGPqMHAotWIBmZFulNbcwleEfhJb5wuDMTCpjmXBYQsJYf3OcKAGTK_b4edKgnpri9IpafGZSHMVnc2OOk1kBPQIap15W5A9YB5UiYR4tev4xUiKouE1mCddMAwaKqAfaWvGs-g-rjMb0faV5zAnwu4WBdHHbNt3gdmdfPA58D4v4uQJMEJbHg6wc-VvqTX6TiHPtGki34Wi7O5mqqxtZW386F5GZU87IVOW84c5yaxiM8wY6h4JRRElWVqos10-BsYpuzeiHO5f_IQ2msqmpOvdM7xmzejCLbkDFQcWptdjthuZQq_71uGsXACBsTojNONXRZ3FXH-4bcBdqG2L3unJJLw9jc-rP_HjvR7_jjbwsCxwNOVwrmVM-HV7D6y-eJ-eGte-CHarRsMXePdfiIff6sNR5F3mqB6Ik9_54tcgE8250adrtndsrJKhA8qsvrsVqrRn-Qajg3tipJ6RXqTH5S5s93qGAeD_hJHDUlC-v8RS26WHZS7bd718kk7jtFjm_VG-WJ0XJEUVC89PLQ02BgNGicV0y4wI0CTl7zm3wJuZlrGzsFiklUXV6n_gf7YBiCB408FU6E5NzO0buNGrkFzhptXu1pmZUymJVqTRFnwszSr1KnzbBlKjqOc35pJJDfMAiw5buM09hYq8sHKolhQfC-rBOJq0TipjSqAu_FbaLUR1XfJ3842uGheOd4S-PwPHmEpvkITATrnNFWfgANBrz8DfR4NAA5yNJUObhQiEYI6IDMEECUstL1arI8QZKOG-La4aVzpkl3Y7isMCLJqZvlfp5ixcZLXY7TQ_QiJAMYwGT5QdD0UGIalE95Me0PjI-L4GQPbEe7gTR8zYev6fuz6WKwyZjJnxV1X32UCY7LGf9qUdQjou_V0RIBpRXTerwNjh0H9RzJfSOCyc0Uw0Ime_QoqYJY-mU3XQWXgzKoEdeA0z9ej5xVRafwBxv8RmU1DErMmhPhHUYP-ZuE8_-g8BXZNO4Dx6egy-eHBkCrqsE7dqgGGFJpPJkVziUC-n2szVstb0icG04tnzwI_Ekj4Em4VVR-MASRfXp8V_NeQmckVZeu-xRJFbATp1JbvsgCTyNwFZuF_0G00]--></g></svg>