<?xml version="1.0" encoding="us-ascii" standalone="no"?><svg xmlns="http://www.w3.org/2000/svg" xmlns:xlink="http://www.w3.org/1999/xlink" contentStyleType="text/css" height="720px" preserveAspectRatio="none" style="width:1102px;height:720px;background:#DDDDDD;" version="1.1" viewBox="0 0 1102 720" width="1102px" zoomAndPan="magnify"><defs/><g><rect fill="#DDDDDD" height="720" style="stroke:none;stroke-width:1.0;" width="1102" x="0" y="0"/><text fill="#000000" font-family="sans-serif" font-size="14" font-weight="bold" lengthAdjust="spacing" textLength="375" x="356.54" y="24.9659">Vis&#227;o de Alto N&#237;vel da Arquitetura Monol&#237;tica Modular</text><!--cluster Aplica??o Monol?tica--><g id="cluster_Aplica&#231;&#227;o Monol&#237;tica"><path d="M9.5,46.6699 L151.5,46.6699 A5.25,5.25 0 0 1 155,50.1699 L162,71.7378 L1091.5,71.7378 A3.5,3.5 0 0 1 1095,75.2378 L1095,682.1699 A3.5,3.5 0 0 1 1091.5,685.6699 L9.5,685.6699 A3.5,3.5 0 0 1 6,682.1699 L6,50.1699 A3.5,3.5 0 0 1 9.5,46.6699 " fill="none" style="stroke:#2F4F4F;stroke-width:1.0;"/><line style="stroke:#2F4F4F;stroke-width:1.0;" x1="6" x2="162" y1="71.7378" y2="71.7378"/><text fill="#000000" font-family="sans-serif" font-size="14" font-weight="bold" lengthAdjust="spacing" textLength="143" x="10" y="63.6358">Aplica&#231;&#227;o Monol&#237;tica</text></g><!--cluster Shared--><g id="cluster_Shared"><rect fill="#D3D3D3" height="153" rx="3.5" ry="3.5" style="stroke:#2F4F4F;stroke-width:1.0;" width="229" x="740" y="100.6699"/><rect fill="#D3D3D3" height="10" style="stroke:#2F4F4F;stroke-width:1.0;" width="15" x="949" y="105.6699"/><rect fill="#D3D3D3" height="2" style="stroke:#2F4F4F;stroke-width:1.0;" width="4" x="947" y="107.6699"/><rect fill="#D3D3D3" height="2" style="stroke:#2F4F4F;stroke-width:1.0;" width="4" x="947" y="111.6699"/><text fill="#000000" font-family="sans-serif" font-size="14" font-weight="bold" lengthAdjust="spacing" textLength="96" x="806.5" y="128.6358">Shared Kernel</text><text fill="#000000" font-family="sans-serif" font-size="14" font-weight="bold" lengthAdjust="spacing" textLength="70" x="819.5" y="147.7038">(@shared)</text></g><!--cluster ClientAdm--><g id="cluster_ClientAdm"><rect fill="#E6E6FA" height="137" rx="3.5" ry="3.5" style="stroke:#2F4F4F;stroke-width:1.0;" width="263" x="469" y="316.6699"/><rect fill="#E6E6FA" height="10" style="stroke:#2F4F4F;stroke-width:1.0;" width="15" x="712" y="321.6699"/><rect fill="#E6E6FA" height="2" style="stroke:#2F4F4F;stroke-width:1.0;" width="4" x="710" y="323.6699"/><rect fill="#E6E6FA" height="2" style="stroke:#2F4F4F;stroke-width:1.0;" width="4" x="710" y="327.6699"/><text fill="#000000" font-family="sans-serif" font-size="14" font-weight="bold" lengthAdjust="spacing" textLength="78" x="561.5" y="344.6358">Client-ADM</text><text fill="#000000" font-family="sans-serif" font-size="14" font-weight="bold" lengthAdjust="spacing" textLength="138" x="531.5" y="363.7038">(Gest&#227;o de Clientes)</text></g><!--cluster ProductAdm--><g id="cluster_ProductAdm"><rect fill="#F5FFFA" height="137" rx="3.5" ry="3.5" style="stroke:#2F4F4F;stroke-width:1.0;" width="277" x="651" y="516.6699"/><rect fill="#F5FFFA" height="10" style="stroke:#2F4F4F;stroke-width:1.0;" width="15" x="908" y="521.6699"/><rect fill="#F5FFFA" height="2" style="stroke:#2F4F4F;stroke-width:1.0;" width="4" x="906" y="523.6699"/><rect fill="#F5FFFA" height="2" style="stroke:#2F4F4F;stroke-width:1.0;" width="4" x="906" y="527.6699"/><text fill="#000000" font-family="sans-serif" font-size="14" font-weight="bold" lengthAdjust="spacing" textLength="93" x="743" y="544.6358">Product-ADM</text><text fill="#000000" font-family="sans-serif" font-size="14" font-weight="bold" lengthAdjust="spacing" textLength="219" x="680" y="563.7038">(Gest&#227;o de Produtos e Estoque)</text></g><!--cluster StoreCatalog--><g id="cluster_StoreCatalog"><rect fill="#FFFFE0" height="137" rx="3.5" ry="3.5" style="stroke:#2F4F4F;stroke-width:1.0;" width="281" x="772" y="316.6699"/><rect fill="#FFFFE0" height="10" style="stroke:#2F4F4F;stroke-width:1.0;" width="15" x="1033" y="321.6699"/><rect fill="#FFFFE0" height="2" style="stroke:#2F4F4F;stroke-width:1.0;" width="4" x="1031" y="323.6699"/><rect fill="#FFFFE0" height="2" style="stroke:#2F4F4F;stroke-width:1.0;" width="4" x="1031" y="327.6699"/><text fill="#000000" font-family="sans-serif" font-size="14" font-weight="bold" lengthAdjust="spacing" textLength="94" x="865.5" y="344.6358">Store Catalog</text><text fill="#000000" font-family="sans-serif" font-size="14" font-weight="bold" lengthAdjust="spacing" textLength="183" x="821" y="363.7038">(Visualiza&#231;&#227;o de Produtos)</text></g><!--cluster Payment--><g id="cluster_Payment"><rect fill="#E0FFFF" height="137" rx="3.5" ry="3.5" style="stroke:#2F4F4F;stroke-width:1.0;" width="254" x="175" y="316.6699"/><rect fill="#E0FFFF" height="10" style="stroke:#2F4F4F;stroke-width:1.0;" width="15" x="409" y="321.6699"/><rect fill="#E0FFFF" height="2" style="stroke:#2F4F4F;stroke-width:1.0;" width="4" x="407" y="323.6699"/><rect fill="#E0FFFF" height="2" style="stroke:#2F4F4F;stroke-width:1.0;" width="4" x="407" y="327.6699"/><text fill="#000000" font-family="sans-serif" font-size="14" font-weight="bold" lengthAdjust="spacing" textLength="62" x="271" y="344.6358">Payment</text><text fill="#000000" font-family="sans-serif" font-size="14" font-weight="bold" lengthAdjust="spacing" textLength="219" x="192.5" y="363.7038">(Processamento de Transa&#231;&#245;es)</text></g><!--entity OrderOrchestrator--><g id="elem_OrderOrchestrator"><rect fill="#F08080" height="68.1358" rx="3.5" ry="3.5" style="stroke:#2F4F4F;stroke-width:0.5;" width="267" x="158.5" y="163.6699"/><rect fill="#F08080" height="10" style="stroke:#2F4F4F;stroke-width:0.5;" width="15" x="405.5" y="168.6699"/><rect fill="#F08080" height="2" style="stroke:#2F4F4F;stroke-width:0.5;" width="4" x="403.5" y="170.6699"/><rect fill="#F08080" height="2" style="stroke:#2F4F4F;stroke-width:0.5;" width="4" x="403.5" y="174.6699"/><text fill="#000000" font-family="sans-serif" font-size="14" lengthAdjust="spacing" textLength="162" x="173.5" y="198.6358">Checkout/Order Module</text><text fill="#000000" font-family="sans-serif" font-size="14" lengthAdjust="spacing" textLength="227" x="173.5" y="217.7038">(Orquestrador Central de Vendas)</text></g><!--class SharedInterfaces--><g id="elem_SharedInterfaces"><rect codeLine="27" fill="#F1F1F1" height="64.1358" id="SharedInterfaces" rx="3.5" ry="3.5" style="stroke:#181818;stroke-width:0.5;" width="162" x="783" y="165.6699"/><ellipse cx="798" cy="189.7378" fill="#B4A7E5" rx="11" ry="11" style="stroke:#181818;stroke-width:1.0;"/><path d="M793.9219,185.5034 L793.9219,183.3472 L801.3125,183.3472 L801.3125,185.5034 L798.8438,185.5034 L798.8438,193.5816 L801.3125,193.5816 L801.3125,195.7378 L793.9219,195.7378 L793.9219,193.5816 L796.3906,193.5816 L796.3906,185.5034 L793.9219,185.5034 Z " fill="#000000"/><text fill="#000000" font-family="sans-serif" font-size="14" font-style="italic" lengthAdjust="spacing" textLength="79" x="837.5" y="185.6358">Base Entities</text><text fill="#000000" font-family="sans-serif" font-size="14" font-style="italic" lengthAdjust="spacing" textLength="130" x="812" y="204.7038">&amp; UseCase Interfaces</text><line style="stroke:#181818;stroke-width:0.5;" x1="784" x2="944" y1="213.8057" y2="213.8057"/><line style="stroke:#181818;stroke-width:0.5;" x1="784" x2="944" y1="221.8057" y2="221.8057"/></g><!--class ClientAdmFacade--><g id="elem_ClientAdmFacade"><rect codeLine="33" fill="#F1F1F1" height="48" id="ClientAdmFacade" rx="3.5" ry="3.5" style="stroke:#181818;stroke-width:0.5;" width="196" x="493" y="381.6699"/><ellipse cx="508" cy="397.6699" fill="#B4A7E5" rx="11" ry="11" style="stroke:#181818;stroke-width:1.0;"/><path d="M503.9219,393.4355 L503.9219,391.2793 L511.3125,391.2793 L511.3125,393.4355 L508.8438,393.4355 L508.8438,401.5136 L511.3125,401.5136 L511.3125,403.6699 L503.9219,403.6699 L503.9219,401.5136 L506.3906,401.5136 L506.3906,393.4355 L503.9219,393.4355 Z " fill="#000000"/><text fill="#000000" font-family="sans-serif" font-size="14" font-style="italic" lengthAdjust="spacing" textLength="164" x="522" y="403.1019">ClientAdmFacadeInterface</text><line style="stroke:#181818;stroke-width:0.5;" x1="494" x2="688" y1="413.6699" y2="413.6699"/><line style="stroke:#181818;stroke-width:0.5;" x1="494" x2="688" y1="421.6699" y2="421.6699"/></g><!--class ProductAdmFacade--><g id="elem_ProductAdmFacade"><rect codeLine="37" fill="#F1F1F1" height="48" id="ProductAdmFacade" rx="3.5" ry="3.5" style="stroke:#181818;stroke-width:0.5;" width="209" x="675.5" y="581.6699"/><ellipse cx="690.5" cy="597.6699" fill="#B4A7E5" rx="11" ry="11" style="stroke:#181818;stroke-width:1.0;"/><path d="M686.4219,593.4355 L686.4219,591.2793 L693.8125,591.2793 L693.8125,593.4355 L691.3438,593.4355 L691.3438,601.5136 L693.8125,601.5136 L693.8125,603.6699 L686.4219,603.6699 L686.4219,601.5136 L688.8906,601.5136 L688.8906,593.4355 L686.4219,593.4355 Z " fill="#000000"/><text fill="#000000" font-family="sans-serif" font-size="14" font-style="italic" lengthAdjust="spacing" textLength="177" x="704.5" y="603.1019">ProductAdmFacadeInterface</text><line style="stroke:#181818;stroke-width:0.5;" x1="676.5" x2="883.5" y1="613.6699" y2="613.6699"/><line style="stroke:#181818;stroke-width:0.5;" x1="676.5" x2="883.5" y1="621.6699" y2="621.6699"/></g><!--class StoreCatalogFacade--><g id="elem_StoreCatalogFacade"><rect codeLine="41" fill="#F1F1F1" height="48" id="StoreCatalogFacade" rx="3.5" ry="3.5" style="stroke:#181818;stroke-width:0.5;" width="214" x="815" y="381.6699"/><ellipse cx="830" cy="397.6699" fill="#B4A7E5" rx="11" ry="11" style="stroke:#181818;stroke-width:1.0;"/><path d="M825.9219,393.4355 L825.9219,391.2793 L833.3125,391.2793 L833.3125,393.4355 L830.8438,393.4355 L830.8438,401.5136 L833.3125,401.5136 L833.3125,403.6699 L825.9219,403.6699 L825.9219,401.5136 L828.3906,401.5136 L828.3906,393.4355 L825.9219,393.4355 Z " fill="#000000"/><text fill="#000000" font-family="sans-serif" font-size="14" font-style="italic" lengthAdjust="spacing" textLength="182" x="844" y="403.1019">StoreCatalogFacadeInterface</text><line style="stroke:#181818;stroke-width:0.5;" x1="816" x2="1028" y1="413.6699" y2="413.6699"/><line style="stroke:#181818;stroke-width:0.5;" x1="816" x2="1028" y1="421.6699" y2="421.6699"/></g><!--class PaymentFacade--><g id="elem_PaymentFacade"><rect codeLine="45" fill="#F1F1F1" height="48" id="PaymentFacade" rx="3.5" ry="3.5" style="stroke:#181818;stroke-width:0.5;" width="187" x="198.5" y="381.6699"/><ellipse cx="213.5" cy="397.6699" fill="#B4A7E5" rx="11" ry="11" style="stroke:#181818;stroke-width:1.0;"/><path d="M209.4219,393.4355 L209.4219,391.2793 L216.8125,391.2793 L216.8125,393.4355 L214.3438,393.4355 L214.3438,401.5136 L216.8125,401.5136 L216.8125,403.6699 L209.4219,403.6699 L209.4219,401.5136 L211.8906,401.5136 L211.8906,393.4355 L209.4219,393.4355 Z " fill="#000000"/><text fill="#000000" font-family="sans-serif" font-size="14" font-style="italic" lengthAdjust="spacing" textLength="155" x="227.5" y="403.1019">PaymentFacadeInterface</text><line style="stroke:#181818;stroke-width:0.5;" x1="199.5" x2="384.5" y1="413.6699" y2="413.6699"/><line style="stroke:#181818;stroke-width:0.5;" x1="199.5" x2="384.5" y1="421.6699" y2="421.6699"/></g><!--link StoreCatalog to ProductAdmFacade--><g id="link_StoreCatalog_ProductAdmFacade"><path codeLine="55" d="M780,453.6909 C780,454.7234 780,455.7664 780,456.8193 C780,458.925 780,461.0701 780,463.249 C780,467.6068 780,472.0997 780,476.6836 C780,513.3549 780,549.8449 780,575.4699 " fill="none" id="StoreCatalog-to-ProductAdmFacade" style="stroke:#696969;stroke-width:1.0;"/><polygon fill="#696969" points="780,581.4699,784,572.4699,780,576.4699,776,572.4699,780,581.4699" style="stroke:#696969;stroke-width:1.0;"/><text fill="#696969" font-family="DroidSansMono" font-size="10" lengthAdjust="spacing" textLength="139" x="781" y="489.3599">Consulta Estoque e Detalhes</text></g><!--link OrderOrchestrator to ClientAdmFacade--><g id="link_OrderOrchestrator_ClientAdmFacade"><path codeLine="58" d="M344.78,231.6899 C366.68,245.6099 392.24,262.1699 415,277.6699 C466.54,312.7799 520.1803,351.9963 555.0703,377.8663 " fill="none" id="OrderOrchestrator-to-ClientAdmFacade" style="stroke:#696969;stroke-width:1.0;"/><polygon fill="#696969" points="559.89,381.4399,555.0429,372.8663,555.8736,378.4619,550.2781,379.2925,559.89,381.4399" style="stroke:#696969;stroke-width:1.0;"/><text fill="#696969" font-family="DroidSansMono" font-size="10" lengthAdjust="spacing" textLength="112" x="435" y="289.3599">1. Busca/Valida Cliente</text></g><!--link OrderOrchestrator to ProductAdmFacade--><g id="link_OrderOrchestrator_ProductAdmFacade"><path codeLine="59" d="M174.12,231.7199 C140.83,247.0999 108.41,269.1999 89,300.6699 C49.57,364.5999 41.25,411.6899 89,469.6699 C162.09,558.4199 494.9204,589.2861 669.4604,599.5961 " fill="none" id="OrderOrchestrator-to-ProductAdmFacade" style="stroke:#696969;stroke-width:1.0;"/><polygon fill="#696969" points="675.45,599.9499,666.7015,595.4262,670.4587,599.6551,666.2298,603.4122,675.45,599.9499" style="stroke:#696969;stroke-width:1.0;"/><text fill="#696969" font-family="DroidSansMono" font-size="10" lengthAdjust="spacing" textLength="92" x="90" y="409.8599">2. Reserva Estoque</text></g><!--link OrderOrchestrator to PaymentFacade--><g id="link_OrderOrchestrator_PaymentFacade"><path codeLine="60" d="M292,231.7699 C292,273.7399 292,339.0199 292,375.5599 " fill="none" id="OrderOrchestrator-to-PaymentFacade" style="stroke:#696969;stroke-width:1.0;"/><polygon fill="#696969" points="292,381.5599,296,372.5599,292,376.5599,288,372.5599,292,381.5599" style="stroke:#696969;stroke-width:1.0;"/><text fill="#696969" font-family="DroidSansMono" font-size="10" lengthAdjust="spacing" textLength="113" x="293" y="289.3599">3. Processa Pagamento</text></g><!--reverse link Shared to ClientAdm--><!--reverse link Shared to ProductAdm--><!--reverse link Shared to StoreCatalog--><!--reverse link Shared to Payment--><text fill="#000000" font-family="sans-serif" font-size="14" lengthAdjust="spacing" textLength="481" x="303.54" y="707.6358">Comunica&#231;&#227;o baseada em Facades entre Contextos (Clean Architecture)</text><!--SRC=[XLLDRzD04BtxLmn1WlQGbiADGqMQf1MYRH0fHGWu3FQGhBBUTNVNfGLwviIHNy012Qadn2_m7sFMNYTswq0KASxEXzzx-tRsZfjJIk3qPHIXbFfZAYw4caLs8LI61bE8TPffHSh1vmZuiwTDGcQefJOmGhEOIdHqOF2oYcAyc1cTgwJAU3KNZgQfNb0P7XYZFuPQaIwhokLzhTmnCfYHqIAPeh97MkbsV2e-4UmyQ2-s-rqri6UC1cVqN-JD6g4ScGyOhwkQ65GpwYHxA6PpzvgyZDmoSi99WbDXYnyQ4eA1T1gEY-jpaf0Wup_BMHoN6mJFL1RNJiJ-ESabcYZ6p0cjOAZJN76W-Edxl4TBoDMKmZx6c905tXj3dCR0Bvosi36KX8hxnrxyc5z0cr5KQz4RP7BPhV7U7lCjMTs7dIsOpj5G0i_8A4QxKJTdofQR-RILBtgjvBTguuaj5pPxWBRkTBSKnwiTTFMVbTOztnZ6YZKJPD-gU_3Iqj2lFQrpRAFTQh7iTLKZVxW5HyLlrezbOCL7EYskbT2miUTtYM448hRYS9F8K0h-xGz6HypYWAmBErUjawqOLVy6ISgay9ouh-dcj4oiTce9kjsb2ZPvD10zD-o6k0DI6V2xpQfPfyzogi25WXBT4MCP6c9JTy9RfNRXknbT0t3gj3SVEfHwnX3PxZbAyIaOh84qsC7dX_HWYkh4T6DifdUXl1rV9oHUflp021aF-yQY_ri2FE4JRJtUF_KEX-I0RtZ9fwbRmIglKxvcg6tIHrl-J5V022Oy1dXR3IRQR0yyCjtjpJd52vsxxOcVHzMK8ARJh8UXdmKeFQjJDYO6FcN9XET1cSYIrSmq9zUm-lq-l1WV3eglnVVn54PZ61oUJ7XWVJiT7_feOpoCAEFsnIyL2uJn1HDN-1XQNe3CK2miCWTbS-dGWAvD1UogibdB3Vt-xYtNmMD_PClwskVi-15nnJmS_jNHtvVvXN-7O5XPKmLOgRIqPPYUrI2uBP07S-E8CXQclfVR6BTFsUCyXSDW-4UF3aACz0LPCkTBIl-gR_g8YzayjO4vDgjSt73MYKvuAF0tNSr1lrTyNoJwnbZt5vw_FPY9lqVyrL8sMWsu_fkvI19Ix_Ai_sKtb9SvZJcpFgczlUjxXUFMdN4L_GK0]--></g></svg>