<?xml version="1.0" encoding="us-ascii" standalone="no"?><svg xmlns="http://www.w3.org/2000/svg" xmlns:xlink="http://www.w3.org/1999/xlink" contentStyleType="text/css" height="1829px" preserveAspectRatio="none" style="width:3040px;height:1829px;background:#FFFFFF;" version="1.1" viewBox="0 0 3040 1829" width="3040px" zoomAndPan="magnify"><defs/><g><text fill="#000000" font-family="sans-serif" font-size="14" font-weight="bold" lengthAdjust="spacing" textLength="520" x="1253" y="24.9659">Arquitetura Monol&#237;tica Modular Detalhada (Clean Architecture + Entidades)</text><!--cluster Aplica??o--><g id="cluster_Aplica&#231;&#227;o"><path d="M8.5,46.6699 L75.5,46.6699 A3.75,3.75 0 0 1 78,49.1699 L85,71.7378 L3030.5,71.7378 A2.5,2.5 0 0 1 3033,74.2378 L3033,1792.1699 A2.5,2.5 0 0 1 3030.5,1794.6699 L8.5,1794.6699 A2.5,2.5 0 0 1 6,1792.1699 L6,49.1699 A2.5,2.5 0 0 1 8.5,46.6699 " fill="none" style="stroke:#2F4F4F;stroke-width:1.5;"/><line style="stroke:#2F4F4F;stroke-width:1.5;" x1="6" x2="85" y1="71.7378" y2="71.7378"/><text fill="#000000" font-family="sans-serif" font-size="14" font-weight="bold" lengthAdjust="spacing" textLength="66" x="10" y="63.6358">Aplica&#231;&#227;o</text></g><!--cluster Shared--><g id="cluster_Shared"><path d="M1751.5,355.6699 L1922.5,355.6699 A3.75,3.75 0 0 1 1925,358.1699 L1932,380.7378 L2435.5,380.7378 A2.5,2.5 0 0 1 2438,383.2378 L2438,461.1699 A2.5,2.5 0 0 1 2435.5,463.6699 L1751.5,463.6699 A2.5,2.5 0 0 1 1749,461.1699 L1749,358.1699 A2.5,2.5 0 0 1 1751.5,355.6699 " fill="none" style="stroke:#2F4F4F;stroke-width:1.5;"/><line style="stroke:#2F4F4F;stroke-width:1.5;" x1="1749" x2="1932" y1="380.7378" y2="380.7378"/><text fill="#000000" font-family="sans-serif" font-size="14" font-weight="bold" lengthAdjust="spacing" textLength="170" x="1753" y="372.6358">Shared Kernel (@shared)</text></g><!--cluster ClientAdm--><g id="cluster_ClientAdm"><path d="M1179.5,309.6699 L1319.5,309.6699 A3.75,3.75 0 0 1 1322,312.1699 L1329,334.7378 L1722.5,334.7378 A2.5,2.5 0 0 1 1725,337.2378 L1725,1234.1699 A2.5,2.5 0 0 1 1722.5,1236.6699 L1179.5,1236.6699 A2.5,2.5 0 0 1 1177,1234.1699 L1177,312.1699 A2.5,2.5 0 0 1 1179.5,309.6699 " fill="none" style="stroke:#2F4F4F;stroke-width:1.5;"/><line style="stroke:#2F4F4F;stroke-width:1.5;" x1="1177" x2="1329" y1="334.7378" y2="334.7378"/><text fill="#000000" font-family="sans-serif" font-size="14" font-weight="bold" lengthAdjust="spacing" textLength="139" x="1181" y="326.6358">M&#243;dulo: Client-ADM</text></g><!--cluster ClientAdmDomain--><g id="cluster_ClientAdmDomain"><path d="M1529.5,517.1699 L1583.5,517.1699 A3.75,3.75 0 0 1 1586,519.6699 L1593,542.2378 L1684.5,542.2378 A2.5,2.5 0 0 1 1687,544.7378 L1687,622.6699 A2.5,2.5 0 0 1 1684.5,625.1699 L1529.5,625.1699 A2.5,2.5 0 0 1 1527,622.6699 L1527,519.6699 A2.5,2.5 0 0 1 1529.5,517.1699 " fill="none" style="stroke:#2F4F4F;stroke-width:1.5;"/><line style="stroke:#2F4F4F;stroke-width:1.5;" x1="1527" x2="1593" y1="542.2378" y2="542.2378"/><text fill="#000000" font-family="sans-serif" font-size="14" font-weight="bold" lengthAdjust="spacing" textLength="53" x="1531" y="534.1358">domain</text></g><!--cluster ClientAdmRepository--><g id="cluster_ClientAdmRepository"><path d="M1211.5,917.6699 L1331.5,917.6699 A3.75,3.75 0 0 1 1334,920.1699 L1341,942.7378 L1597.5,942.7378 A2.5,2.5 0 0 1 1600,945.2378 L1600,1039.1699 A2.5,2.5 0 0 1 1597.5,1041.6699 L1211.5,1041.6699 A2.5,2.5 0 0 1 1209,1039.1699 L1209,920.1699 A2.5,2.5 0 0 1 1211.5,917.6699 " fill="none" style="stroke:#2F4F4F;stroke-width:1.5;"/><line style="stroke:#2F4F4F;stroke-width:1.5;" x1="1209" x2="1341" y1="942.7378" y2="942.7378"/><text fill="#000000" font-family="sans-serif" font-size="14" font-weight="bold" lengthAdjust="spacing" textLength="119" x="1213" y="934.6358">repository (Infra)</text></g><!--cluster ClientAdmUseCases--><g id="cluster_ClientAdmUseCases"><path d="M1323.5,688.1699 L1378.5,688.1699 A3.75,3.75 0 0 1 1381,690.6699 L1388,713.2378 L1698.5,713.2378 A2.5,2.5 0 0 1 1701,715.7378 L1701,806.6699 A2.5,2.5 0 0 1 1698.5,809.1699 L1323.5,809.1699 A2.5,2.5 0 0 1 1321,806.6699 L1321,690.6699 A2.5,2.5 0 0 1 1323.5,688.1699 " fill="none" style="stroke:#2F4F4F;stroke-width:1.5;"/><line style="stroke:#2F4F4F;stroke-width:1.5;" x1="1321" x2="1388" y1="713.2378" y2="713.2378"/><text fill="#000000" font-family="sans-serif" font-size="14" font-weight="bold" lengthAdjust="spacing" textLength="54" x="1325" y="705.1358">usecase</text></g><!--cluster ClientAdmGateway--><g id="cluster_ClientAdmGateway"><rect fill="#F5F5F5" height="108" rx="2.5" ry="2.5" style="stroke:#2F4F4F;stroke-width:1.0;" width="160" x="1512" y="1104.6699"/><text fill="#000000" font-family="sans-serif" font-size="14" font-weight="bold" lengthAdjust="spacing" textLength="144" x="1520" y="1121.6358">Gateway (Abstra&#231;&#227;o)</text></g><!--cluster ClientAdmFacadeComp--><g id="cluster_ClientAdmFacadeComp"><rect fill="#F5F5F5" height="269.5" rx="2.5" ry="2.5" style="stroke:#2F4F4F;stroke-width:1.0;" width="228" x="1275" y="355.6699"/><text fill="#000000" font-family="sans-serif" font-size="14" font-weight="bold" lengthAdjust="spacing" textLength="116" x="1331" y="372.6358">Facade (Entrada)</text></g><!--cluster ProductAdmn--><g id="cluster_ProductAdmn"><path d="M32.5,879.6699 L187.5,879.6699 A3.75,3.75 0 0 1 190,882.1699 L197,904.7378 L594.5,904.7378 A2.5,2.5 0 0 1 597,907.2378 L597,1768.1699 A2.5,2.5 0 0 1 594.5,1770.6699 L32.5,1770.6699 A2.5,2.5 0 0 1 30,1768.1699 L30,882.1699 A2.5,2.5 0 0 1 32.5,879.6699 " fill="none" style="stroke:#2F4F4F;stroke-width:1.5;"/><line style="stroke:#2F4F4F;stroke-width:1.5;" x1="30" x2="197" y1="904.7378" y2="904.7378"/><text fill="#000000" font-family="sans-serif" font-size="14" font-weight="bold" lengthAdjust="spacing" textLength="154" x="34" y="896.6358">M&#243;dulo: Product-ADM</text></g><!--cluster ProductAdmDomain--><g id="cluster_ProductAdmDomain"><path d="M133.5,1104.6699 L187.5,1104.6699 A3.75,3.75 0 0 1 190,1107.1699 L197,1129.7378 L304.5,1129.7378 A2.5,2.5 0 0 1 307,1132.2378 L307,1210.1699 A2.5,2.5 0 0 1 304.5,1212.6699 L133.5,1212.6699 A2.5,2.5 0 0 1 131,1210.1699 L131,1107.1699 A2.5,2.5 0 0 1 133.5,1104.6699 " fill="none" style="stroke:#2F4F4F;stroke-width:1.5;"/><line style="stroke:#2F4F4F;stroke-width:1.5;" x1="131" x2="197" y1="1129.7378" y2="1129.7378"/><text fill="#000000" font-family="sans-serif" font-size="14" font-weight="bold" lengthAdjust="spacing" textLength="53" x="135" y="1121.6358">domain</text></g><!--cluster ProductAdmRepository--><g id="cluster_ProductAdmRepository"><path d="M64.5,1459.6699 L184.5,1459.6699 A3.75,3.75 0 0 1 187,1462.1699 L194,1484.7378 L482.5,1484.7378 A2.5,2.5 0 0 1 485,1487.2378 L485,1581.1699 A2.5,2.5 0 0 1 482.5,1583.6699 L64.5,1583.6699 A2.5,2.5 0 0 1 62,1581.1699 L62,1462.1699 A2.5,2.5 0 0 1 64.5,1459.6699 " fill="none" style="stroke:#2F4F4F;stroke-width:1.5;"/><line style="stroke:#2F4F4F;stroke-width:1.5;" x1="62" x2="194" y1="1484.7378" y2="1484.7378"/><text fill="#000000" font-family="sans-serif" font-size="14" font-weight="bold" lengthAdjust="spacing" textLength="119" x="66" y="1476.6358">repository (Infra)</text></g><!--cluster ProductAdmUseCases--><g id="cluster_ProductAdmUseCases"><path d="M176.5,1283.6699 L231.5,1283.6699 A3.75,3.75 0 0 1 234,1286.1699 L241,1308.7378 L570.5,1308.7378 A2.5,2.5 0 0 1 573,1311.2378 L573,1402.1699 A2.5,2.5 0 0 1 570.5,1404.6699 L176.5,1404.6699 A2.5,2.5 0 0 1 174,1402.1699 L174,1286.1699 A2.5,2.5 0 0 1 176.5,1283.6699 " fill="none" style="stroke:#2F4F4F;stroke-width:1.5;"/><line style="stroke:#2F4F4F;stroke-width:1.5;" x1="174" x2="241" y1="1308.7378" y2="1308.7378"/><text fill="#000000" font-family="sans-serif" font-size="14" font-weight="bold" lengthAdjust="spacing" textLength="54" x="178" y="1300.6358">usecase</text></g><!--cluster ProductAdmGateway--><g id="cluster_ProductAdmGateway"><rect fill="#F5F5F5" height="108" rx="2.5" ry="2.5" style="stroke:#2F4F4F;stroke-width:1.0;" width="168" x="393" y="1638.6699"/><text fill="#000000" font-family="sans-serif" font-size="14" font-weight="bold" lengthAdjust="spacing" textLength="144" x="405" y="1655.6358">Gateway (Abstra&#231;&#227;o)</text></g><!--cluster ProductAdmFacadeComp--><g id="cluster_ProductAdmFacadeComp"><rect fill="#F5F5F5" height="287" rx="2.5" ry="2.5" style="stroke:#2F4F4F;stroke-width:1.0;" width="242" x="331" y="925.6699"/><text fill="#000000" font-family="sans-serif" font-size="14" font-weight="bold" lengthAdjust="spacing" textLength="116" x="394" y="942.6358">Facade (Entrada)</text></g><!--cluster StoreCatalog--><g id="cluster_StoreCatalog"><path d="M2464.5,92.6699 L2620.5,92.6699 A3.75,3.75 0 0 1 2623,95.1699 L2630,117.7378 L3006.5,117.7378 A2.5,2.5 0 0 1 3009,120.2378 L3009,1055.1699 A2.5,2.5 0 0 1 3006.5,1057.6699 L2464.5,1057.6699 A2.5,2.5 0 0 1 2462,1055.1699 L2462,95.1699 A2.5,2.5 0 0 1 2464.5,92.6699 " fill="none" style="stroke:#2F4F4F;stroke-width:1.5;"/><line style="stroke:#2F4F4F;stroke-width:1.5;" x1="2462" x2="2630" y1="117.7378" y2="117.7378"/><text fill="#000000" font-family="sans-serif" font-size="14" font-weight="bold" lengthAdjust="spacing" textLength="155" x="2466" y="109.6358">M&#243;dulo: Store Catalog</text></g><!--cluster StoreCatalogDomain--><g id="cluster_StoreCatalogDomain"><path d="M2758.5,355.6699 L2812.5,355.6699 A3.75,3.75 0 0 1 2815,358.1699 L2822,380.7378 L2929.5,380.7378 A2.5,2.5 0 0 1 2932,383.2378 L2932,461.1699 A2.5,2.5 0 0 1 2929.5,463.6699 L2758.5,463.6699 A2.5,2.5 0 0 1 2756,461.1699 L2756,358.1699 A2.5,2.5 0 0 1 2758.5,355.6699 " fill="none" style="stroke:#2F4F4F;stroke-width:1.5;"/><line style="stroke:#2F4F4F;stroke-width:1.5;" x1="2756" x2="2822" y1="380.7378" y2="380.7378"/><text fill="#000000" font-family="sans-serif" font-size="14" font-weight="bold" lengthAdjust="spacing" textLength="53" x="2760" y="372.6358">domain</text></g><!--cluster StoreCatalogRepository--><g id="cluster_StoreCatalogRepository"><path d="M2556.5,686.6699 L2676.5,686.6699 A3.75,3.75 0 0 1 2679,689.1699 L2686,711.7378 L2974.5,711.7378 A2.5,2.5 0 0 1 2977,714.2378 L2977,808.1699 A2.5,2.5 0 0 1 2974.5,810.6699 L2556.5,810.6699 A2.5,2.5 0 0 1 2554,808.1699 L2554,689.1699 A2.5,2.5 0 0 1 2556.5,686.6699 " fill="none" style="stroke:#2F4F4F;stroke-width:1.5;"/><line style="stroke:#2F4F4F;stroke-width:1.5;" x1="2554" x2="2686" y1="711.7378" y2="711.7378"/><text fill="#000000" font-family="sans-serif" font-size="14" font-weight="bold" lengthAdjust="spacing" textLength="119" x="2558" y="703.6358">repository (Infra)</text></g><!--cluster StoreCatalogUseCases--><g id="cluster_StoreCatalogUseCases"><path d="M2488.5,510.6699 L2543.5,510.6699 A3.75,3.75 0 0 1 2546,513.1699 L2553,535.7378 L2914.5,535.7378 A2.5,2.5 0 0 1 2917,538.2378 L2917,629.1699 A2.5,2.5 0 0 1 2914.5,631.6699 L2488.5,631.6699 A2.5,2.5 0 0 1 2486,629.1699 L2486,513.1699 A2.5,2.5 0 0 1 2488.5,510.6699 " fill="none" style="stroke:#2F4F4F;stroke-width:1.5;"/><line style="stroke:#2F4F4F;stroke-width:1.5;" x1="2486" x2="2553" y1="535.7378" y2="535.7378"/><text fill="#000000" font-family="sans-serif" font-size="14" font-weight="bold" lengthAdjust="spacing" textLength="54" x="2490" y="527.6358">usecase</text></g><!--cluster StoreCatalogGateway--><g id="cluster_StoreCatalogGateway"><rect fill="#F5F5F5" height="108" rx="2.5" ry="2.5" style="stroke:#2F4F4F;stroke-width:1.0;" width="168" x="2486" y="925.6699"/><text fill="#000000" font-family="sans-serif" font-size="14" font-weight="bold" lengthAdjust="spacing" textLength="144" x="2498" y="942.6358">Gateway (Abstra&#231;&#227;o)</text></g><!--cluster StoreCatalogFacadeComp--><g id="cluster_StoreCatalogFacadeComp"><rect fill="#F5F5F5" height="325" rx="2.5" ry="2.5" style="stroke:#2F4F4F;stroke-width:1.0;" width="246" x="2486" y="138.6699"/><text fill="#000000" font-family="sans-serif" font-size="14" font-weight="bold" lengthAdjust="spacing" textLength="116" x="2551" y="155.6358">Facade (Entrada)</text></g><!--cluster Payment--><g id="cluster_Payment"><path d="M623.5,309.6699 L747.5,309.6699 A3.75,3.75 0 0 1 750,312.1699 L757,334.7378 L1150.5,334.7378 A2.5,2.5 0 0 1 1153,337.2378 L1153,1234.1699 A2.5,2.5 0 0 1 1150.5,1236.6699 L623.5,1236.6699 A2.5,2.5 0 0 1 621,1234.1699 L621,312.1699 A2.5,2.5 0 0 1 623.5,309.6699 " fill="none" style="stroke:#2F4F4F;stroke-width:1.5;"/><line style="stroke:#2F4F4F;stroke-width:1.5;" x1="621" x2="757" y1="334.7378" y2="334.7378"/><text fill="#000000" font-family="sans-serif" font-size="14" font-weight="bold" lengthAdjust="spacing" textLength="123" x="625" y="326.6358">M&#243;dulo: Payment</text></g><!--cluster PaymentDomain--><g id="cluster_PaymentDomain"><path d="M720.5,517.1699 L774.5,517.1699 A3.75,3.75 0 0 1 777,519.6699 L784,542.2378 L871.5,542.2378 A2.5,2.5 0 0 1 874,544.7378 L874,622.6699 A2.5,2.5 0 0 1 871.5,625.1699 L720.5,625.1699 A2.5,2.5 0 0 1 718,622.6699 L718,519.6699 A2.5,2.5 0 0 1 720.5,517.1699 " fill="none" style="stroke:#2F4F4F;stroke-width:1.5;"/><line style="stroke:#2F4F4F;stroke-width:1.5;" x1="718" x2="784" y1="542.2378" y2="542.2378"/><text fill="#000000" font-family="sans-serif" font-size="14" font-weight="bold" lengthAdjust="spacing" textLength="53" x="722" y="534.1358">domain</text></g><!--cluster PaymentRepository--><g id="cluster_PaymentRepository"><path d="M655.5,917.6699 L775.5,917.6699 A3.75,3.75 0 0 1 778,920.1699 L785,942.7378 L1118.5,942.7378 A2.5,2.5 0 0 1 1121,945.2378 L1121,1039.1699 A2.5,2.5 0 0 1 1118.5,1041.6699 L655.5,1041.6699 A2.5,2.5 0 0 1 653,1039.1699 L653,920.1699 A2.5,2.5 0 0 1 655.5,917.6699 " fill="none" style="stroke:#2F4F4F;stroke-width:1.5;"/><line style="stroke:#2F4F4F;stroke-width:1.5;" x1="653" x2="785" y1="942.7378" y2="942.7378"/><text fill="#000000" font-family="sans-serif" font-size="14" font-weight="bold" lengthAdjust="spacing" textLength="119" x="657" y="934.6358">repository (Infra)</text></g><!--cluster PaymentUseCases--><g id="cluster_PaymentUseCases"><path d="M901.5,688.1699 L956.5,688.1699 A3.75,3.75 0 0 1 959,690.6699 L966,713.2378 L1126.5,713.2378 A2.5,2.5 0 0 1 1129,715.7378 L1129,806.6699 A2.5,2.5 0 0 1 1126.5,809.1699 L901.5,809.1699 A2.5,2.5 0 0 1 899,806.6699 L899,690.6699 A2.5,2.5 0 0 1 901.5,688.1699 " fill="none" style="stroke:#2F4F4F;stroke-width:1.5;"/><line style="stroke:#2F4F4F;stroke-width:1.5;" x1="899" x2="966" y1="713.2378" y2="713.2378"/><text fill="#000000" font-family="sans-serif" font-size="14" font-weight="bold" lengthAdjust="spacing" textLength="54" x="903" y="705.1358">usecase</text></g><!--cluster PaymentGateway--><g id="cluster_PaymentGateway"><rect fill="#F5F5F5" height="108" rx="2.5" ry="2.5" style="stroke:#2F4F4F;stroke-width:1.0;" width="174" x="955" y="1104.6699"/><text fill="#000000" font-family="sans-serif" font-size="14" font-weight="bold" lengthAdjust="spacing" textLength="144" x="970" y="1121.6358">Gateway (Abstra&#231;&#227;o)</text></g><!--cluster PaymentFacadeComp--><g id="cluster_PaymentFacadeComp"><rect fill="#F5F5F5" height="269.5" rx="2.5" ry="2.5" style="stroke:#2F4F4F;stroke-width:1.0;" width="218" x="905" y="355.6699"/><text fill="#000000" font-family="sans-serif" font-size="14" font-weight="bold" lengthAdjust="spacing" textLength="116" x="956" y="372.6358">Facade (Entrada)</text></g><!--entity OrderOrchestrator--><g id="elem_OrderOrchestrator"><rect fill="#F08080" height="68.1358" rx="2.5" ry="2.5" style="stroke:#2F4F4F;stroke-width:0.5;" width="242" x="893" y="180.6699"/><rect fill="#F08080" height="10" style="stroke:#2F4F4F;stroke-width:0.5;" width="15" x="1115" y="185.6699"/><rect fill="#F08080" height="2" style="stroke:#2F4F4F;stroke-width:0.5;" width="4" x="1113" y="187.6699"/><rect fill="#F08080" height="2" style="stroke:#2F4F4F;stroke-width:0.5;" width="4" x="1113" y="191.6699"/><text fill="#000000" font-family="sans-serif" font-size="14" lengthAdjust="spacing" textLength="107" x="928" y="215.6358">Checkout/Order</text><text fill="#000000" font-family="sans-serif" font-size="14" lengthAdjust="spacing" textLength="4" x="1035" y="215.6358">&#160;</text><text fill="#000000" font-family="sans-serif" font-size="14" lengthAdjust="spacing" textLength="51" x="1039" y="215.6358">Module</text><text fill="#000000" font-family="sans-serif" font-size="14" lengthAdjust="spacing" textLength="100" x="908" y="234.7038">(Orquestrador,</text><text fill="#000000" font-family="sans-serif" font-size="14" lengthAdjust="spacing" textLength="4" x="1008" y="234.7038">&#160;</text><text fill="#000000" font-family="sans-serif" font-size="14" lengthAdjust="spacing" textLength="27" x="1012" y="234.7038">N&#227;o</text><text fill="#000000" font-family="sans-serif" font-size="14" lengthAdjust="spacing" textLength="4" x="1039" y="234.7038">&#160;</text><text fill="#000000" font-family="sans-serif" font-size="14" lengthAdjust="spacing" textLength="67" x="1043" y="234.7038">Mapeado)</text></g><!--class SharedAggregateRootInterface--><g id="elem_SharedAggregateRootInterface"><rect codeLine="42" fill="#FFB6C1" height="32" id="SharedAggregateRootInterface" rx="2.5" ry="2.5" style="stroke:#8B008B;stroke-width:0.5;" width="182" x="1928" y="415.6699"/><ellipse cx="1943" cy="431.6699" fill="#B4A7E5" rx="11" ry="11" style="stroke:#181818;stroke-width:1.0;"/><path d="M1938.9219,427.4355 L1938.9219,425.2793 L1946.3125,425.2793 L1946.3125,427.4355 L1943.8438,427.4355 L1943.8438,435.5136 L1946.3125,435.5136 L1946.3125,437.6699 L1938.9219,437.6699 L1938.9219,435.5136 L1941.3906,435.5136 L1941.3906,427.4355 L1938.9219,427.4355 Z " fill="#000000"/><text fill="#000000" font-family="sans-serif" font-size="14" font-style="italic" lengthAdjust="spacing" textLength="150" x="1957" y="437.1019">AggregateRootInterface</text></g><!--class SharedBaseEntity--><g id="elem_SharedBaseEntity"><rect codeLine="43" fill="#FFB6C1" height="32" id="SharedBaseEntity" rx="2.5" ry="2.5" style="stroke:#8B008B;stroke-width:0.5;" width="102" x="2145" y="415.6699"/><ellipse cx="2160" cy="431.6699" fill="#ADD1B2" rx="11" ry="11" style="stroke:#181818;stroke-width:1.0;"/><path d="M2162.9688,437.3105 Q2162.3906,437.6074 2161.75,437.748 Q2161.1094,437.9043 2160.4063,437.9043 Q2157.9063,437.9043 2156.5781,436.2636 Q2155.2656,434.6074 2155.2656,431.4824 Q2155.2656,428.3574 2156.5781,426.7011 Q2157.9063,425.0449 2160.4063,425.0449 Q2161.1094,425.0449 2161.75,425.2011 Q2162.4063,425.3574 2162.9688,425.6543 L2162.9688,428.373 Q2162.3438,427.7949 2161.75,427.5293 Q2161.1563,427.248 2160.5313,427.248 Q2159.1875,427.248 2158.5,428.3261 Q2157.8125,429.3886 2157.8125,431.4824 Q2157.8125,433.5761 2158.5,434.6543 Q2159.1875,435.7168 2160.5313,435.7168 Q2161.1563,435.7168 2161.75,435.4511 Q2162.3438,435.1699 2162.9688,434.5918 L2162.9688,437.3105 Z " fill="#000000"/><text fill="#000000" font-family="sans-serif" font-size="14" lengthAdjust="spacing" textLength="70" x="2174" y="437.1019">BaseEntity</text></g><!--class SharedIdValueObject--><g id="elem_SharedIdValueObject"><rect codeLine="44" fill="#FFB6C1" height="32" id="SharedIdValueObject" rx="2.5" ry="2.5" style="stroke:#8B008B;stroke-width:0.5;" width="127" x="1765.5" y="415.6699"/><ellipse cx="1780.5" cy="431.6699" fill="#ADD1B2" rx="11" ry="11" style="stroke:#181818;stroke-width:1.0;"/><path d="M1783.4688,437.3105 Q1782.8906,437.6074 1782.25,437.748 Q1781.6094,437.9043 1780.9063,437.9043 Q1778.4063,437.9043 1777.0781,436.2636 Q1775.7656,434.6074 1775.7656,431.4824 Q1775.7656,428.3574 1777.0781,426.7011 Q1778.4063,425.0449 1780.9063,425.0449 Q1781.6094,425.0449 1782.25,425.2011 Q1782.9063,425.3574 1783.4688,425.6543 L1783.4688,428.373 Q1782.8438,427.7949 1782.25,427.5293 Q1781.6563,427.248 1781.0313,427.248 Q1779.6875,427.248 1779,428.3261 Q1778.3125,429.3886 1778.3125,431.4824 Q1778.3125,433.5761 1779,434.6543 Q1779.6875,435.7168 1781.0313,435.7168 Q1781.6563,435.7168 1782.25,435.4511 Q1782.8438,435.1699 1783.4688,434.5918 L1783.4688,437.3105 Z " fill="#000000"/><text fill="#000000" font-family="sans-serif" font-size="14" lengthAdjust="spacing" textLength="95" x="1794.5" y="437.1019">IdValueObject</text></g><!--class SharedUseCaseInterface--><g id="elem_SharedUseCaseInterface"><rect codeLine="45" fill="#FFB6C1" height="32" id="SharedUseCaseInterface" rx="2.5" ry="2.5" style="stroke:#8B008B;stroke-width:0.5;" width="139" x="2282.5" y="415.6699"/><ellipse cx="2297.5" cy="431.6699" fill="#B4A7E5" rx="11" ry="11" style="stroke:#181818;stroke-width:1.0;"/><path d="M2293.4219,427.4355 L2293.4219,425.2793 L2300.8125,425.2793 L2300.8125,427.4355 L2298.3438,427.4355 L2298.3438,435.5136 L2300.8125,435.5136 L2300.8125,437.6699 L2293.4219,437.6699 L2293.4219,435.5136 L2295.8906,435.5136 L2295.8906,427.4355 L2293.4219,427.4355 Z " fill="#000000"/><text fill="#000000" font-family="sans-serif" font-size="14" font-style="italic" lengthAdjust="spacing" textLength="107" x="2311.5" y="437.1019">UseCaseInterface</text></g><!--class ClientAdmClientEntity--><g id="elem_ClientAdmClientEntity"><rect codeLine="55" fill="#FFB6C1" height="32" id="ClientAdmClientEntity" rx="2.5" ry="2.5" style="stroke:#8B008B;stroke-width:0.5;" width="127" x="1543.5" y="577.1699"/><ellipse cx="1558.5" cy="593.1699" fill="#ADD1B2" rx="11" ry="11" style="stroke:#181818;stroke-width:1.0;"/><path d="M1561.4688,598.8105 Q1560.8906,599.1074 1560.25,599.248 Q1559.6094,599.4043 1558.9063,599.4043 Q1556.4063,599.4043 1555.0781,597.7636 Q1553.7656,596.1074 1553.7656,592.9824 Q1553.7656,589.8574 1555.0781,588.2011 Q1556.4063,586.5449 1558.9063,586.5449 Q1559.6094,586.5449 1560.25,586.7011 Q1560.9063,586.8574 1561.4688,587.1543 L1561.4688,589.873 Q1560.8438,589.2949 1560.25,589.0293 Q1559.6563,588.748 1559.0313,588.748 Q1557.6875,588.748 1557,589.8261 Q1556.3125,590.8886 1556.3125,592.9824 Q1556.3125,595.0761 1557,596.1543 Q1557.6875,597.2168 1559.0313,597.2168 Q1559.6563,597.2168 1560.25,596.9511 Q1560.8438,596.6699 1561.4688,596.0918 L1561.4688,598.8105 Z " fill="#000000"/><text fill="#000000" font-family="sans-serif" font-size="14" lengthAdjust="spacing" textLength="95" x="1572.5" y="598.6019">client.entity.ts</text></g><!--class ClientAdmClientModel--><g id="elem_ClientAdmClientModel"><rect codeLine="60" fill="#FFB6C1" height="32" id="ClientAdmClientModel" rx="2.5" ry="2.5" style="stroke:#8B008B;stroke-width:0.5;" width="131" x="1425.5" y="985.6699"/><ellipse cx="1440.5" cy="1001.6699" fill="#ADD1B2" rx="11" ry="11" style="stroke:#181818;stroke-width:1.0;"/><path d="M1443.4688,1007.3105 Q1442.8906,1007.6074 1442.25,1007.748 Q1441.6094,1007.9043 1440.9063,1007.9043 Q1438.4063,1007.9043 1437.0781,1006.2636 Q1435.7656,1004.6074 1435.7656,1001.4824 Q1435.7656,998.3574 1437.0781,996.7011 Q1438.4063,995.0449 1440.9063,995.0449 Q1441.6094,995.0449 1442.25,995.2011 Q1442.9063,995.3574 1443.4688,995.6543 L1443.4688,998.373 Q1442.8438,997.7949 1442.25,997.5293 Q1441.6563,997.248 1441.0313,997.248 Q1439.6875,997.248 1439,998.3261 Q1438.3125,999.3886 1438.3125,1001.4824 Q1438.3125,1003.5761 1439,1004.6543 Q1439.6875,1005.7168 1441.0313,1005.7168 Q1441.6563,1005.7168 1442.25,1005.4511 Q1442.8438,1005.1699 1443.4688,1004.5918 L1443.4688,1007.3105 Z " fill="#000000"/><text fill="#000000" font-family="sans-serif" font-size="14" lengthAdjust="spacing" textLength="99" x="1454.5" y="1007.1019">client.model.ts</text></g><!--class ClientAdmClientRepository--><g id="elem_ClientAdmClientRepository"><rect codeLine="61" fill="#FFB6C1" height="32" id="ClientAdmClientRepository" rx="2.5" ry="2.5" style="stroke:#8B008B;stroke-width:0.5;" width="157" x="1233.5" y="985.6699"/><ellipse cx="1248.5" cy="1001.6699" fill="#ADD1B2" rx="11" ry="11" style="stroke:#181818;stroke-width:1.0;"/><path d="M1251.4688,1007.3105 Q1250.8906,1007.6074 1250.25,1007.748 Q1249.6094,1007.9043 1248.9063,1007.9043 Q1246.4063,1007.9043 1245.0781,1006.2636 Q1243.7656,1004.6074 1243.7656,1001.4824 Q1243.7656,998.3574 1245.0781,996.7011 Q1246.4063,995.0449 1248.9063,995.0449 Q1249.6094,995.0449 1250.25,995.2011 Q1250.9063,995.3574 1251.4688,995.6543 L1251.4688,998.373 Q1250.8438,997.7949 1250.25,997.5293 Q1249.6563,997.248 1249.0313,997.248 Q1247.6875,997.248 1247,998.3261 Q1246.3125,999.3886 1246.3125,1001.4824 Q1246.3125,1003.5761 1247,1004.6543 Q1247.6875,1005.7168 1249.0313,1005.7168 Q1249.6563,1005.7168 1250.25,1005.4511 Q1250.8438,1005.1699 1251.4688,1004.5918 L1251.4688,1007.3105 Z " fill="#000000"/><text fill="#000000" font-family="sans-serif" font-size="14" lengthAdjust="spacing" textLength="125" x="1262.5" y="1007.1019">client.repository.ts</text></g><!--class AddClientUseCase--><g id="elem_AddClientUseCase"><rect codeLine="66" fill="#FFB6C1" height="45.412" id="AddClientUseCase" rx="2.5" ry="2.5" style="stroke:#8B008B;stroke-width:0.5;" width="155" x="1529.5" y="748.1699"/><ellipse cx="1544.5" cy="770.8759" fill="#ADD1B2" rx="11" ry="11" style="stroke:#181818;stroke-width:1.0;"/><path d="M1547.4688,776.5165 Q1546.8906,776.8134 1546.25,776.954 Q1545.6094,777.1103 1544.9063,777.1103 Q1542.4063,777.1103 1541.0781,775.4697 Q1539.7656,773.8134 1539.7656,770.6884 Q1539.7656,767.5634 1541.0781,765.9072 Q1542.4063,764.2509 1544.9063,764.2509 Q1545.6094,764.2509 1546.25,764.4072 Q1546.9063,764.5634 1547.4688,764.8603 L1547.4688,767.579 Q1546.8438,767.0009 1546.25,766.7353 Q1545.6563,766.454 1545.0313,766.454 Q1543.6875,766.454 1543,767.5322 Q1542.3125,768.5947 1542.3125,770.6884 Q1542.3125,772.7822 1543,773.8603 Q1543.6875,774.9228 1545.0313,774.9228 Q1545.6563,774.9228 1546.25,774.6572 Q1546.8438,774.3759 1547.4688,773.7978 L1547.4688,776.5165 Z " fill="#000000"/><text fill="#000000" font-family="sans-serif" font-size="12" font-style="italic" lengthAdjust="spacing" textLength="119" x="1560.5" y="765.998">&#171;AddClient.usecase.ts&#187;</text><text fill="#000000" font-family="sans-serif" font-size="14" lengthAdjust="spacing" textLength="123" x="1558.5" y="784.4799">AddClientUseCase</text></g><!--class FindClientUseCase--><g id="elem_FindClientUseCase"><rect codeLine="67" fill="#FFB6C1" height="45.412" id="FindClientUseCase" rx="2.5" ry="2.5" style="stroke:#8B008B;stroke-width:0.5;" width="157" x="1337.5" y="748.1699"/><ellipse cx="1352.5" cy="770.8759" fill="#ADD1B2" rx="11" ry="11" style="stroke:#181818;stroke-width:1.0;"/><path d="M1355.4688,776.5165 Q1354.8906,776.8134 1354.25,776.954 Q1353.6094,777.1103 1352.9063,777.1103 Q1350.4063,777.1103 1349.0781,775.4697 Q1347.7656,773.8134 1347.7656,770.6884 Q1347.7656,767.5634 1349.0781,765.9072 Q1350.4063,764.2509 1352.9063,764.2509 Q1353.6094,764.2509 1354.25,764.4072 Q1354.9063,764.5634 1355.4688,764.8603 L1355.4688,767.579 Q1354.8438,767.0009 1354.25,766.7353 Q1353.6563,766.454 1353.0313,766.454 Q1351.6875,766.454 1351,767.5322 Q1350.3125,768.5947 1350.3125,770.6884 Q1350.3125,772.7822 1351,773.8603 Q1351.6875,774.9228 1353.0313,774.9228 Q1353.6563,774.9228 1354.25,774.6572 Q1354.8438,774.3759 1355.4688,773.7978 L1355.4688,776.5165 Z " fill="#000000"/><text fill="#000000" font-family="sans-serif" font-size="12" font-style="italic" lengthAdjust="spacing" textLength="121" x="1368.5" y="765.998">&#171;FindClient.usecase.ts&#187;</text><text fill="#000000" font-family="sans-serif" font-size="14" lengthAdjust="spacing" textLength="125" x="1366.5" y="784.4799">FindClientUseCase</text></g><!--class ClientAdmClientGateway--><g id="elem_ClientAdmClientGateway"><rect codeLine="82" fill="#FFB6C1" height="32" id="ClientAdmClientGateway" rx="2.5" ry="2.5" style="stroke:#8B008B;stroke-width:0.5;" width="122" x="1531" y="1164.6699"/><ellipse cx="1546" cy="1180.6699" fill="#B4A7E5" rx="11" ry="11" style="stroke:#181818;stroke-width:1.0;"/><path d="M1541.9219,1176.4355 L1541.9219,1174.2793 L1549.3125,1174.2793 L1549.3125,1176.4355 L1546.8438,1176.4355 L1546.8438,1184.5136 L1549.3125,1184.5136 L1549.3125,1186.6699 L1541.9219,1186.6699 L1541.9219,1184.5136 L1544.3906,1184.5136 L1544.3906,1176.4355 L1541.9219,1176.4355 Z " fill="#000000"/><text fill="#000000" font-family="sans-serif" font-size="14" font-style="italic" lengthAdjust="spacing" textLength="90" x="1560" y="1186.1019">ClientGateway</text></g><!--class ClientAdmFacadeInterface--><g id="elem_ClientAdmFacadeInterface"><rect codeLine="86" fill="#FFB6C1" height="32" id="ClientAdmFacadeInterface" rx="2.5" ry="2.5" style="stroke:#8B008B;stroke-width:0.5;" width="196" x="1291" y="415.6699"/><ellipse cx="1306" cy="431.6699" fill="#B4A7E5" rx="11" ry="11" style="stroke:#181818;stroke-width:1.0;"/><path d="M1301.9219,427.4355 L1301.9219,425.2793 L1309.3125,425.2793 L1309.3125,427.4355 L1306.8438,427.4355 L1306.8438,435.5136 L1309.3125,435.5136 L1309.3125,437.6699 L1301.9219,437.6699 L1301.9219,435.5136 L1304.3906,435.5136 L1304.3906,427.4355 L1301.9219,427.4355 Z " fill="#000000"/><text fill="#000000" font-family="sans-serif" font-size="14" font-style="italic" lengthAdjust="spacing" textLength="164" x="1320" y="437.1019">ClientAdmFacadeInterface</text></g><!--class ClientAdmFacadeImpl--><g id="elem_ClientAdmFacadeImpl"><rect codeLine="87" fill="#FFB6C1" height="32" id="ClientAdmFacadeImpl" rx="2.5" ry="2.5" style="stroke:#8B008B;stroke-width:0.5;" width="149" x="1338.5" y="577.1699"/><ellipse cx="1353.5" cy="593.1699" fill="#ADD1B2" rx="11" ry="11" style="stroke:#181818;stroke-width:1.0;"/><path d="M1356.4688,598.8105 Q1355.8906,599.1074 1355.25,599.248 Q1354.6094,599.4043 1353.9063,599.4043 Q1351.4063,599.4043 1350.0781,597.7636 Q1348.7656,596.1074 1348.7656,592.9824 Q1348.7656,589.8574 1350.0781,588.2011 Q1351.4063,586.5449 1353.9063,586.5449 Q1354.6094,586.5449 1355.25,586.7011 Q1355.9063,586.8574 1356.4688,587.1543 L1356.4688,589.873 Q1355.8438,589.2949 1355.25,589.0293 Q1354.6563,588.748 1354.0313,588.748 Q1352.6875,588.748 1352,589.8261 Q1351.3125,590.8886 1351.3125,592.9824 Q1351.3125,595.0761 1352,596.1543 Q1352.6875,597.2168 1354.0313,597.2168 Q1354.6563,597.2168 1355.25,596.9511 Q1355.8438,596.6699 1356.4688,596.0918 L1356.4688,598.8105 Z " fill="#000000"/><text fill="#000000" font-family="sans-serif" font-size="14" lengthAdjust="spacing" textLength="117" x="1367.5" y="598.6019">ClientAdmFacade</text></g><!--class ProductAdmProductEntity--><g id="elem_ProductAdmProductEntity"><rect codeLine="101" fill="#FFB6C1" height="32" id="ProductAdmProductEntity" rx="2.5" ry="2.5" style="stroke:#8B008B;stroke-width:0.5;" width="143" x="147.5" y="1164.6699"/><ellipse cx="162.5" cy="1180.6699" fill="#ADD1B2" rx="11" ry="11" style="stroke:#181818;stroke-width:1.0;"/><path d="M165.4688,1186.3105 Q164.8906,1186.6074 164.25,1186.748 Q163.6094,1186.9043 162.9063,1186.9043 Q160.4063,1186.9043 159.0781,1185.2636 Q157.7656,1183.6074 157.7656,1180.4824 Q157.7656,1177.3574 159.0781,1175.7011 Q160.4063,1174.0449 162.9063,1174.0449 Q163.6094,1174.0449 164.25,1174.2011 Q164.9063,1174.3574 165.4688,1174.6543 L165.4688,1177.373 Q164.8438,1176.7949 164.25,1176.5293 Q163.6563,1176.248 163.0313,1176.248 Q161.6875,1176.248 161,1177.3261 Q160.3125,1178.3886 160.3125,1180.4824 Q160.3125,1182.5761 161,1183.6543 Q161.6875,1184.7168 163.0313,1184.7168 Q163.6563,1184.7168 164.25,1184.4511 Q164.8438,1184.1699 165.4688,1183.5918 L165.4688,1186.3105 Z " fill="#000000"/><text fill="#000000" font-family="sans-serif" font-size="14" lengthAdjust="spacing" textLength="111" x="176.5" y="1186.1019">product.entity.ts</text></g><!--class ProductAdmProductModel--><g id="elem_ProductAdmProductModel"><rect codeLine="105" fill="#FFB6C1" height="32" id="ProductAdmProductModel" rx="2.5" ry="2.5" style="stroke:#8B008B;stroke-width:0.5;" width="147" x="294.5" y="1527.6699"/><ellipse cx="309.5" cy="1543.6699" fill="#ADD1B2" rx="11" ry="11" style="stroke:#181818;stroke-width:1.0;"/><path d="M312.4688,1549.3105 Q311.8906,1549.6074 311.25,1549.748 Q310.6094,1549.9043 309.9063,1549.9043 Q307.4063,1549.9043 306.0781,1548.2636 Q304.7656,1546.6074 304.7656,1543.4824 Q304.7656,1540.3574 306.0781,1538.7011 Q307.4063,1537.0449 309.9063,1537.0449 Q310.6094,1537.0449 311.25,1537.2011 Q311.9063,1537.3574 312.4688,1537.6543 L312.4688,1540.373 Q311.8438,1539.7949 311.25,1539.5293 Q310.6563,1539.248 310.0313,1539.248 Q308.6875,1539.248 308,1540.3261 Q307.3125,1541.3886 307.3125,1543.4824 Q307.3125,1545.5761 308,1546.6543 Q308.6875,1547.7168 310.0313,1547.7168 Q310.6563,1547.7168 311.25,1547.4511 Q311.8438,1547.1699 312.4688,1546.5918 L312.4688,1549.3105 Z " fill="#000000"/><text fill="#000000" font-family="sans-serif" font-size="14" lengthAdjust="spacing" textLength="115" x="323.5" y="1549.1019">product.model.ts</text></g><!--class ProductAdmProductRepository--><g id="elem_ProductAdmProductRepository"><rect codeLine="106" fill="#FFB6C1" height="32" id="ProductAdmProductRepository" rx="2.5" ry="2.5" style="stroke:#8B008B;stroke-width:0.5;" width="173" x="86.5" y="1527.6699"/><ellipse cx="101.5" cy="1543.6699" fill="#ADD1B2" rx="11" ry="11" style="stroke:#181818;stroke-width:1.0;"/><path d="M104.4688,1549.3105 Q103.8906,1549.6074 103.25,1549.748 Q102.6094,1549.9043 101.9063,1549.9043 Q99.4063,1549.9043 98.0781,1548.2636 Q96.7656,1546.6074 96.7656,1543.4824 Q96.7656,1540.3574 98.0781,1538.7011 Q99.4063,1537.0449 101.9063,1537.0449 Q102.6094,1537.0449 103.25,1537.2011 Q103.9063,1537.3574 104.4688,1537.6543 L104.4688,1540.373 Q103.8438,1539.7949 103.25,1539.5293 Q102.6563,1539.248 102.0313,1539.248 Q100.6875,1539.248 100,1540.3261 Q99.3125,1541.3886 99.3125,1543.4824 Q99.3125,1545.5761 100,1546.6543 Q100.6875,1547.7168 102.0313,1547.7168 Q102.6563,1547.7168 103.25,1547.4511 Q103.8438,1547.1699 104.4688,1546.5918 L104.4688,1549.3105 Z " fill="#000000"/><text fill="#000000" font-family="sans-serif" font-size="14" lengthAdjust="spacing" textLength="141" x="115.5" y="1549.1019">product.repository.ts</text></g><!--class AddProductUseCaseAdm--><g id="elem_AddProductUseCaseAdm"><rect codeLine="111" fill="#FFB6C1" height="45.412" id="AddProductUseCaseAdm" rx="2.5" ry="2.5" style="stroke:#8B008B;stroke-width:0.5;" width="168" x="190" y="1343.6699"/><ellipse cx="205" cy="1366.3759" fill="#ADD1B2" rx="11" ry="11" style="stroke:#181818;stroke-width:1.0;"/><path d="M207.9688,1372.0165 Q207.3906,1372.3134 206.75,1372.454 Q206.1094,1372.6103 205.4063,1372.6103 Q202.9063,1372.6103 201.5781,1370.9697 Q200.2656,1369.3134 200.2656,1366.1884 Q200.2656,1363.0634 201.5781,1361.4072 Q202.9063,1359.7509 205.4063,1359.7509 Q206.1094,1359.7509 206.75,1359.9072 Q207.4063,1360.0634 207.9688,1360.3603 L207.9688,1363.079 Q207.3438,1362.5009 206.75,1362.2353 Q206.1563,1361.954 205.5313,1361.954 Q204.1875,1361.954 203.5,1363.0322 Q202.8125,1364.0947 202.8125,1366.1884 Q202.8125,1368.2822 203.5,1369.3603 Q204.1875,1370.4228 205.5313,1370.4228 Q206.1563,1370.4228 206.75,1370.1572 Q207.3438,1369.8759 207.9688,1369.2978 L207.9688,1372.0165 Z " fill="#000000"/><text fill="#000000" font-family="sans-serif" font-size="12" font-style="italic" lengthAdjust="spacing" textLength="131" x="221.5" y="1361.498">&#171;AddProduct.usecase.ts&#187;</text><text fill="#000000" font-family="sans-serif" font-size="14" lengthAdjust="spacing" textLength="136" x="219" y="1379.9799">AddProductUseCase</text></g><!--class CheckStockUseCaseAdm--><g id="elem_CheckStockUseCaseAdm"><rect codeLine="112" fill="#FFB6C1" height="45.412" id="CheckStockUseCaseAdm" rx="2.5" ry="2.5" style="stroke:#8B008B;stroke-width:0.5;" width="164" x="393" y="1343.6699"/><ellipse cx="408" cy="1366.3759" fill="#ADD1B2" rx="11" ry="11" style="stroke:#181818;stroke-width:1.0;"/><path d="M410.9688,1372.0165 Q410.3906,1372.3134 409.75,1372.454 Q409.1094,1372.6103 408.4063,1372.6103 Q405.9063,1372.6103 404.5781,1370.9697 Q403.2656,1369.3134 403.2656,1366.1884 Q403.2656,1363.0634 404.5781,1361.4072 Q405.9063,1359.7509 408.4063,1359.7509 Q409.1094,1359.7509 409.75,1359.9072 Q410.4063,1360.0634 410.9688,1360.3603 L410.9688,1363.079 Q410.3438,1362.5009 409.75,1362.2353 Q409.1563,1361.954 408.5313,1361.954 Q407.1875,1361.954 406.5,1363.0322 Q405.8125,1364.0947 405.8125,1366.1884 Q405.8125,1368.2822 406.5,1369.3603 Q407.1875,1370.4228 408.5313,1370.4228 Q409.1563,1370.4228 409.75,1370.1572 Q410.3438,1369.8759 410.9688,1369.2978 L410.9688,1372.0165 Z " fill="#000000"/><text fill="#000000" font-family="sans-serif" font-size="12" font-style="italic" lengthAdjust="spacing" textLength="127" x="424.5" y="1361.498">&#171;CheckStock.usecase.ts&#187;</text><text fill="#000000" font-family="sans-serif" font-size="14" lengthAdjust="spacing" textLength="132" x="422" y="1379.9799">CheckStockUseCase</text></g><!--class ProductAdmProductGateway--><g id="elem_ProductAdmProductGateway"><rect codeLine="127" fill="#FFB6C1" height="32" id="ProductAdmProductGateway" rx="2.5" ry="2.5" style="stroke:#8B008B;stroke-width:0.5;" width="135" x="409.5" y="1698.6699"/><ellipse cx="424.5" cy="1714.6699" fill="#B4A7E5" rx="11" ry="11" style="stroke:#181818;stroke-width:1.0;"/><path d="M420.4219,1710.4355 L420.4219,1708.2793 L427.8125,1708.2793 L427.8125,1710.4355 L425.3438,1710.4355 L425.3438,1718.5136 L427.8125,1718.5136 L427.8125,1720.6699 L420.4219,1720.6699 L420.4219,1718.5136 L422.8906,1718.5136 L422.8906,1710.4355 L420.4219,1710.4355 Z " fill="#000000"/><text fill="#000000" font-family="sans-serif" font-size="14" font-style="italic" lengthAdjust="spacing" textLength="103" x="438.5" y="1720.1019">ProductGateway</text></g><!--class ProductAdmFacadeInterface--><g id="elem_ProductAdmFacadeInterface"><rect codeLine="131" fill="#FFB6C1" height="32" id="ProductAdmFacadeInterface" rx="2.5" ry="2.5" style="stroke:#8B008B;stroke-width:0.5;" width="209" x="347.5" y="985.6699"/><ellipse cx="362.5" cy="1001.6699" fill="#B4A7E5" rx="11" ry="11" style="stroke:#181818;stroke-width:1.0;"/><path d="M358.4219,997.4355 L358.4219,995.2793 L365.8125,995.2793 L365.8125,997.4355 L363.3438,997.4355 L363.3438,1005.5136 L365.8125,1005.5136 L365.8125,1007.6699 L358.4219,1007.6699 L358.4219,1005.5136 L360.8906,1005.5136 L360.8906,997.4355 L358.4219,997.4355 Z " fill="#000000"/><text fill="#000000" font-family="sans-serif" font-size="14" font-style="italic" lengthAdjust="spacing" textLength="177" x="376.5" y="1007.1019">ProductAdmFacadeInterface</text></g><!--class ProductAdmFacadeImpl--><g id="elem_ProductAdmFacadeImpl"><rect codeLine="132" fill="#FFB6C1" height="32" id="ProductAdmFacadeImpl" rx="2.5" ry="2.5" style="stroke:#8B008B;stroke-width:0.5;" width="162" x="371" y="1164.6699"/><ellipse cx="386" cy="1180.6699" fill="#ADD1B2" rx="11" ry="11" style="stroke:#181818;stroke-width:1.0;"/><path d="M388.9688,1186.3105 Q388.3906,1186.6074 387.75,1186.748 Q387.1094,1186.9043 386.4063,1186.9043 Q383.9063,1186.9043 382.5781,1185.2636 Q381.2656,1183.6074 381.2656,1180.4824 Q381.2656,1177.3574 382.5781,1175.7011 Q383.9063,1174.0449 386.4063,1174.0449 Q387.1094,1174.0449 387.75,1174.2011 Q388.4063,1174.3574 388.9688,1174.6543 L388.9688,1177.373 Q388.3438,1176.7949 387.75,1176.5293 Q387.1563,1176.248 386.5313,1176.248 Q385.1875,1176.248 384.5,1177.3261 Q383.8125,1178.3886 383.8125,1180.4824 Q383.8125,1182.5761 384.5,1183.6543 Q385.1875,1184.7168 386.5313,1184.7168 Q387.1563,1184.7168 387.75,1184.4511 Q388.3438,1184.1699 388.9688,1183.5918 L388.9688,1186.3105 Z " fill="#000000"/><text fill="#000000" font-family="sans-serif" font-size="14" lengthAdjust="spacing" textLength="130" x="400" y="1186.1019">ProductAdmFacade</text></g><!--class StoreCatalogProductEntity--><g id="elem_StoreCatalogProductEntity"><rect codeLine="146" fill="#FFB6C1" height="32" id="StoreCatalogProductEntity" rx="2.5" ry="2.5" style="stroke:#8B008B;stroke-width:0.5;" width="143" x="2772.5" y="415.6699"/><ellipse cx="2787.5" cy="431.6699" fill="#ADD1B2" rx="11" ry="11" style="stroke:#181818;stroke-width:1.0;"/><path d="M2790.4688,437.3105 Q2789.8906,437.6074 2789.25,437.748 Q2788.6094,437.9043 2787.9063,437.9043 Q2785.4063,437.9043 2784.0781,436.2636 Q2782.7656,434.6074 2782.7656,431.4824 Q2782.7656,428.3574 2784.0781,426.7011 Q2785.4063,425.0449 2787.9063,425.0449 Q2788.6094,425.0449 2789.25,425.2011 Q2789.9063,425.3574 2790.4688,425.6543 L2790.4688,428.373 Q2789.8438,427.7949 2789.25,427.5293 Q2788.6563,427.248 2788.0313,427.248 Q2786.6875,427.248 2786,428.3261 Q2785.3125,429.3886 2785.3125,431.4824 Q2785.3125,433.5761 2786,434.6543 Q2786.6875,435.7168 2788.0313,435.7168 Q2788.6563,435.7168 2789.25,435.4511 Q2789.8438,435.1699 2790.4688,434.5918 L2790.4688,437.3105 Z " fill="#000000"/><text fill="#000000" font-family="sans-serif" font-size="14" lengthAdjust="spacing" textLength="111" x="2801.5" y="437.1019">product.entity.ts</text></g><!--class StoreCatalogProductModel--><g id="elem_StoreCatalogProductModel"><rect codeLine="150" fill="#FFB6C1" height="32" id="StoreCatalogProductModel" rx="2.5" ry="2.5" style="stroke:#8B008B;stroke-width:0.5;" width="147" x="2805.5" y="754.6699"/><ellipse cx="2820.5" cy="770.6699" fill="#ADD1B2" rx="11" ry="11" style="stroke:#181818;stroke-width:1.0;"/><path d="M2823.4688,776.3105 Q2822.8906,776.6074 2822.25,776.748 Q2821.6094,776.9043 2820.9063,776.9043 Q2818.4063,776.9043 2817.0781,775.2636 Q2815.7656,773.6074 2815.7656,770.4824 Q2815.7656,767.3574 2817.0781,765.7011 Q2818.4063,764.0449 2820.9063,764.0449 Q2821.6094,764.0449 2822.25,764.2011 Q2822.9063,764.3574 2823.4688,764.6543 L2823.4688,767.373 Q2822.8438,766.7949 2822.25,766.5293 Q2821.6563,766.248 2821.0313,766.248 Q2819.6875,766.248 2819,767.3261 Q2818.3125,768.3886 2818.3125,770.4824 Q2818.3125,772.5761 2819,773.6543 Q2819.6875,774.7168 2821.0313,774.7168 Q2821.6563,774.7168 2822.25,774.4511 Q2822.8438,774.1699 2823.4688,773.5918 L2823.4688,776.3105 Z " fill="#000000"/><text fill="#000000" font-family="sans-serif" font-size="14" lengthAdjust="spacing" textLength="115" x="2834.5" y="776.1019">product.model.ts</text></g><!--class StoreCatalogProductRepository--><g id="elem_StoreCatalogProductRepository"><rect codeLine="151" fill="#FFB6C1" height="32" id="StoreCatalogProductRepository" rx="2.5" ry="2.5" style="stroke:#8B008B;stroke-width:0.5;" width="173" x="2597.5" y="754.6699"/><ellipse cx="2612.5" cy="770.6699" fill="#ADD1B2" rx="11" ry="11" style="stroke:#181818;stroke-width:1.0;"/><path d="M2615.4688,776.3105 Q2614.8906,776.6074 2614.25,776.748 Q2613.6094,776.9043 2612.9063,776.9043 Q2610.4063,776.9043 2609.0781,775.2636 Q2607.7656,773.6074 2607.7656,770.4824 Q2607.7656,767.3574 2609.0781,765.7011 Q2610.4063,764.0449 2612.9063,764.0449 Q2613.6094,764.0449 2614.25,764.2011 Q2614.9063,764.3574 2615.4688,764.6543 L2615.4688,767.373 Q2614.8438,766.7949 2614.25,766.5293 Q2613.6563,766.248 2613.0313,766.248 Q2611.6875,766.248 2611,767.3261 Q2610.3125,768.3886 2610.3125,770.4824 Q2610.3125,772.5761 2611,773.6543 Q2611.6875,774.7168 2613.0313,774.7168 Q2613.6563,774.7168 2614.25,774.4511 Q2614.8438,774.1699 2615.4688,773.5918 L2615.4688,776.3105 Z " fill="#000000"/><text fill="#000000" font-family="sans-serif" font-size="14" lengthAdjust="spacing" textLength="141" x="2626.5" y="776.1019">product.repository.ts</text></g><!--class FindAllProductsUseCase--><g id="elem_FindAllProductsUseCase"><rect codeLine="156" fill="#FFB6C1" height="45.412" id="FindAllProductsUseCase" rx="2.5" ry="2.5" style="stroke:#8B008B;stroke-width:0.5;" width="194" x="2502" y="570.6699"/><ellipse cx="2517" cy="593.3759" fill="#ADD1B2" rx="11" ry="11" style="stroke:#181818;stroke-width:1.0;"/><path d="M2519.9688,599.0165 Q2519.3906,599.3134 2518.75,599.454 Q2518.1094,599.6103 2517.4063,599.6103 Q2514.9063,599.6103 2513.5781,597.9697 Q2512.2656,596.3134 2512.2656,593.1884 Q2512.2656,590.0634 2513.5781,588.4072 Q2514.9063,586.7509 2517.4063,586.7509 Q2518.1094,586.7509 2518.75,586.9072 Q2519.4063,587.0634 2519.9688,587.3603 L2519.9688,590.079 Q2519.3438,589.5009 2518.75,589.2353 Q2518.1563,588.954 2517.5313,588.954 Q2516.1875,588.954 2515.5,590.0322 Q2514.8125,591.0947 2514.8125,593.1884 Q2514.8125,595.2822 2515.5,596.3603 Q2516.1875,597.4228 2517.5313,597.4228 Q2518.1563,597.4228 2518.75,597.1572 Q2519.3438,596.8759 2519.9688,596.2978 L2519.9688,599.0165 Z " fill="#000000"/><text fill="#000000" font-family="sans-serif" font-size="12" font-style="italic" lengthAdjust="spacing" textLength="104" x="2560" y="588.498">&#171;FindAll.usecase.ts&#187;</text><text fill="#000000" font-family="sans-serif" font-size="14" lengthAdjust="spacing" textLength="162" x="2531" y="606.9799">FindAllProductsUseCase</text></g><!--class FindProductUseCaseSC--><g id="elem_FindProductUseCaseSC"><rect codeLine="157" fill="#FFB6C1" height="45.412" id="FindProductUseCaseSC" rx="2.5" ry="2.5" style="stroke:#8B008B;stroke-width:0.5;" width="170" x="2731" y="570.6699"/><ellipse cx="2746" cy="593.3759" fill="#ADD1B2" rx="11" ry="11" style="stroke:#181818;stroke-width:1.0;"/><path d="M2748.9688,599.0165 Q2748.3906,599.3134 2747.75,599.454 Q2747.1094,599.6103 2746.4063,599.6103 Q2743.9063,599.6103 2742.5781,597.9697 Q2741.2656,596.3134 2741.2656,593.1884 Q2741.2656,590.0634 2742.5781,588.4072 Q2743.9063,586.7509 2746.4063,586.7509 Q2747.1094,586.7509 2747.75,586.9072 Q2748.4063,587.0634 2748.9688,587.3603 L2748.9688,590.079 Q2748.3438,589.5009 2747.75,589.2353 Q2747.1563,588.954 2746.5313,588.954 Q2745.1875,588.954 2744.5,590.0322 Q2743.8125,591.0947 2743.8125,593.1884 Q2743.8125,595.2822 2744.5,596.3603 Q2745.1875,597.4228 2746.5313,597.4228 Q2747.1563,597.4228 2747.75,597.1572 Q2748.3438,596.8759 2748.9688,596.2978 L2748.9688,599.0165 Z " fill="#000000"/><text fill="#000000" font-family="sans-serif" font-size="12" font-style="italic" lengthAdjust="spacing" textLength="117" x="2770.5" y="588.498">&#171;FindProd.usecase.ts&#187;</text><text fill="#000000" font-family="sans-serif" font-size="14" lengthAdjust="spacing" textLength="138" x="2760" y="606.9799">FindProductUseCase</text></g><!--class StoreCatalogProductGateway--><g id="elem_StoreCatalogProductGateway"><rect codeLine="172" fill="#FFB6C1" height="32" id="StoreCatalogProductGateway" rx="2.5" ry="2.5" style="stroke:#8B008B;stroke-width:0.5;" width="135" x="2502.5" y="985.6699"/><ellipse cx="2517.5" cy="1001.6699" fill="#B4A7E5" rx="11" ry="11" style="stroke:#181818;stroke-width:1.0;"/><path d="M2513.4219,997.4355 L2513.4219,995.2793 L2520.8125,995.2793 L2520.8125,997.4355 L2518.3438,997.4355 L2518.3438,1005.5136 L2520.8125,1005.5136 L2520.8125,1007.6699 L2513.4219,1007.6699 L2513.4219,1005.5136 L2515.8906,1005.5136 L2515.8906,997.4355 L2513.4219,997.4355 Z " fill="#000000"/><text fill="#000000" font-family="sans-serif" font-size="14" font-style="italic" lengthAdjust="spacing" textLength="103" x="2531.5" y="1007.1019">ProductGateway</text></g><!--class StoreCatalogFacadeInterface--><g id="elem_StoreCatalogFacadeInterface"><rect codeLine="176" fill="#FFB6C1" height="32" id="StoreCatalogFacadeInterface" rx="2.5" ry="2.5" style="stroke:#8B008B;stroke-width:0.5;" width="214" x="2502" y="198.6699"/><ellipse cx="2517" cy="214.6699" fill="#B4A7E5" rx="11" ry="11" style="stroke:#181818;stroke-width:1.0;"/><path d="M2512.9219,210.4355 L2512.9219,208.2793 L2520.3125,208.2793 L2520.3125,210.4355 L2517.8438,210.4355 L2517.8438,218.5136 L2520.3125,218.5136 L2520.3125,220.6699 L2512.9219,220.6699 L2512.9219,218.5136 L2515.3906,218.5136 L2515.3906,210.4355 L2512.9219,210.4355 Z " fill="#000000"/><text fill="#000000" font-family="sans-serif" font-size="14" font-style="italic" lengthAdjust="spacing" textLength="182" x="2531" y="220.1019">StoreCatalogFacadeInterface</text></g><!--class StoreCatalogFacadeImpl--><g id="elem_StoreCatalogFacadeImpl"><rect codeLine="177" fill="#FFB6C1" height="32" id="StoreCatalogFacadeImpl" rx="2.5" ry="2.5" style="stroke:#8B008B;stroke-width:0.5;" width="165" x="2526.5" y="415.6699"/><ellipse cx="2541.5" cy="431.6699" fill="#ADD1B2" rx="11" ry="11" style="stroke:#181818;stroke-width:1.0;"/><path d="M2544.4688,437.3105 Q2543.8906,437.6074 2543.25,437.748 Q2542.6094,437.9043 2541.9063,437.9043 Q2539.4063,437.9043 2538.0781,436.2636 Q2536.7656,434.6074 2536.7656,431.4824 Q2536.7656,428.3574 2538.0781,426.7011 Q2539.4063,425.0449 2541.9063,425.0449 Q2542.6094,425.0449 2543.25,425.2011 Q2543.9063,425.3574 2544.4688,425.6543 L2544.4688,428.373 Q2543.8438,427.7949 2543.25,427.5293 Q2542.6563,427.248 2542.0313,427.248 Q2540.6875,427.248 2540,428.3261 Q2539.3125,429.3886 2539.3125,431.4824 Q2539.3125,433.5761 2540,434.6543 Q2540.6875,435.7168 2542.0313,435.7168 Q2542.6563,435.7168 2543.25,435.4511 Q2543.8438,435.1699 2544.4688,434.5918 L2544.4688,437.3105 Z " fill="#000000"/><text fill="#000000" font-family="sans-serif" font-size="14" lengthAdjust="spacing" textLength="133" x="2555.5" y="437.1019">StoreCatalogFacade</text></g><!--class PaymentTransaction--><g id="elem_PaymentTransaction"><rect codeLine="191" fill="#FFB6C1" height="32" id="PaymentTransaction" rx="2.5" ry="2.5" style="stroke:#8B008B;stroke-width:0.5;" width="124" x="734" y="577.1699"/><ellipse cx="749" cy="593.1699" fill="#ADD1B2" rx="11" ry="11" style="stroke:#181818;stroke-width:1.0;"/><path d="M751.9688,598.8105 Q751.3906,599.1074 750.75,599.248 Q750.1094,599.4043 749.4063,599.4043 Q746.9063,599.4043 745.5781,597.7636 Q744.2656,596.1074 744.2656,592.9824 Q744.2656,589.8574 745.5781,588.2011 Q746.9063,586.5449 749.4063,586.5449 Q750.1094,586.5449 750.75,586.7011 Q751.4063,586.8574 751.9688,587.1543 L751.9688,589.873 Q751.3438,589.2949 750.75,589.0293 Q750.1563,588.748 749.5313,588.748 Q748.1875,588.748 747.5,589.8261 Q746.8125,590.8886 746.8125,592.9824 Q746.8125,595.0761 747.5,596.1543 Q748.1875,597.2168 749.5313,597.2168 Q750.1563,597.2168 750.75,596.9511 Q751.3438,596.6699 751.9688,596.0918 L751.9688,598.8105 Z " fill="#000000"/><text fill="#000000" font-family="sans-serif" font-size="14" lengthAdjust="spacing" textLength="92" x="763" y="598.6019">transaction.ts</text></g><!--class PaymentTransactionModel--><g id="elem_PaymentTransactionModel"><rect codeLine="195" fill="#FFB6C1" height="32" id="PaymentTransactionModel" rx="2.5" ry="2.5" style="stroke:#8B008B;stroke-width:0.5;" width="170" x="908" y="985.6699"/><ellipse cx="923" cy="1001.6699" fill="#ADD1B2" rx="11" ry="11" style="stroke:#181818;stroke-width:1.0;"/><path d="M925.9688,1007.3105 Q925.3906,1007.6074 924.75,1007.748 Q924.1094,1007.9043 923.4063,1007.9043 Q920.9063,1007.9043 919.5781,1006.2636 Q918.2656,1004.6074 918.2656,1001.4824 Q918.2656,998.3574 919.5781,996.7011 Q920.9063,995.0449 923.4063,995.0449 Q924.1094,995.0449 924.75,995.2011 Q925.4063,995.3574 925.9688,995.6543 L925.9688,998.373 Q925.3438,997.7949 924.75,997.5293 Q924.1563,997.248 923.5313,997.248 Q922.1875,997.248 921.5,998.3261 Q920.8125,999.3886 920.8125,1001.4824 Q920.8125,1003.5761 921.5,1004.6543 Q922.1875,1005.7168 923.5313,1005.7168 Q924.1563,1005.7168 924.75,1005.4511 Q925.3438,1005.1699 925.9688,1004.5918 L925.9688,1007.3105 Z " fill="#000000"/><text fill="#000000" font-family="sans-serif" font-size="14" lengthAdjust="spacing" textLength="138" x="937" y="1007.1019">transaction.model.ts</text></g><!--class PaymentTransactionRepository--><g id="elem_PaymentTransactionRepository"><rect codeLine="196" fill="#FFB6C1" height="32" id="PaymentTransactionRepository" rx="2.5" ry="2.5" style="stroke:#8B008B;stroke-width:0.5;" width="196" x="677" y="985.6699"/><ellipse cx="692" cy="1001.6699" fill="#ADD1B2" rx="11" ry="11" style="stroke:#181818;stroke-width:1.0;"/><path d="M694.9688,1007.3105 Q694.3906,1007.6074 693.75,1007.748 Q693.1094,1007.9043 692.4063,1007.9043 Q689.9063,1007.9043 688.5781,1006.2636 Q687.2656,1004.6074 687.2656,1001.4824 Q687.2656,998.3574 688.5781,996.7011 Q689.9063,995.0449 692.4063,995.0449 Q693.1094,995.0449 693.75,995.2011 Q694.4063,995.3574 694.9688,995.6543 L694.9688,998.373 Q694.3438,997.7949 693.75,997.5293 Q693.1563,997.248 692.5313,997.248 Q691.1875,997.248 690.5,998.3261 Q689.8125,999.3886 689.8125,1001.4824 Q689.8125,1003.5761 690.5,1004.6543 Q691.1875,1005.7168 692.5313,1005.7168 Q693.1563,1005.7168 693.75,1005.4511 Q694.3438,1005.1699 694.9688,1004.5918 L694.9688,1007.3105 Z " fill="#000000"/><text fill="#000000" font-family="sans-serif" font-size="14" lengthAdjust="spacing" textLength="164" x="706" y="1007.1019">transaction.repository.ts</text></g><!--class ProcessPaymentUseCase--><g id="elem_ProcessPaymentUseCase"><rect codeLine="201" fill="#FFB6C1" height="45.412" id="ProcessPaymentUseCase" rx="2.5" ry="2.5" style="stroke:#8B008B;stroke-width:0.5;" width="198" x="915" y="748.1699"/><ellipse cx="930" cy="770.8759" fill="#ADD1B2" rx="11" ry="11" style="stroke:#181818;stroke-width:1.0;"/><path d="M932.9688,776.5165 Q932.3906,776.8134 931.75,776.954 Q931.1094,777.1103 930.4063,777.1103 Q927.9063,777.1103 926.5781,775.4697 Q925.2656,773.8134 925.2656,770.6884 Q925.2656,767.5634 926.5781,765.9072 Q927.9063,764.2509 930.4063,764.2509 Q931.1094,764.2509 931.75,764.4072 Q932.4063,764.5634 932.9688,764.8603 L932.9688,767.579 Q932.3438,767.0009 931.75,766.7353 Q931.1563,766.454 930.5313,766.454 Q929.1875,766.454 928.5,767.5322 Q927.8125,768.5947 927.8125,770.6884 Q927.8125,772.7822 928.5,773.8603 Q929.1875,774.9228 930.5313,774.9228 Q931.1563,774.9228 931.75,774.6572 Q932.3438,774.3759 932.9688,773.7978 L932.9688,776.5165 Z " fill="#000000"/><text fill="#000000" font-family="sans-serif" font-size="12" font-style="italic" lengthAdjust="spacing" textLength="128" x="963" y="765.998">&#171;ProcessPay.usecase.ts&#187;</text><text fill="#000000" font-family="sans-serif" font-size="14" lengthAdjust="spacing" textLength="166" x="944" y="784.4799">ProcessPaymentUseCase</text></g><!--class PaymentPaymentGateway--><g id="elem_PaymentPaymentGateway"><rect codeLine="211" fill="#FFB6C1" height="32" id="PaymentPaymentGateway" rx="2.5" ry="2.5" style="stroke:#8B008B;stroke-width:0.5;" width="141" x="971.5" y="1164.6699"/><ellipse cx="986.5" cy="1180.6699" fill="#B4A7E5" rx="11" ry="11" style="stroke:#181818;stroke-width:1.0;"/><path d="M982.4219,1176.4355 L982.4219,1174.2793 L989.8125,1174.2793 L989.8125,1176.4355 L987.3438,1176.4355 L987.3438,1184.5136 L989.8125,1184.5136 L989.8125,1186.6699 L982.4219,1186.6699 L982.4219,1184.5136 L984.8906,1184.5136 L984.8906,1176.4355 L982.4219,1176.4355 Z " fill="#000000"/><text fill="#000000" font-family="sans-serif" font-size="14" font-style="italic" lengthAdjust="spacing" textLength="109" x="1000.5" y="1186.1019">PaymentGateway</text></g><!--class PaymentFacadeInterface--><g id="elem_PaymentFacadeInterface"><rect codeLine="215" fill="#FFB6C1" height="32" id="PaymentFacadeInterface" rx="2.5" ry="2.5" style="stroke:#8B008B;stroke-width:0.5;" width="187" x="920.5" y="415.6699"/><ellipse cx="935.5" cy="431.6699" fill="#B4A7E5" rx="11" ry="11" style="stroke:#181818;stroke-width:1.0;"/><path d="M931.4219,427.4355 L931.4219,425.2793 L938.8125,425.2793 L938.8125,427.4355 L936.3438,427.4355 L936.3438,435.5136 L938.8125,435.5136 L938.8125,437.6699 L931.4219,437.6699 L931.4219,435.5136 L933.8906,435.5136 L933.8906,427.4355 L931.4219,427.4355 Z " fill="#000000"/><text fill="#000000" font-family="sans-serif" font-size="14" font-style="italic" lengthAdjust="spacing" textLength="155" x="949.5" y="437.1019">PaymentFacadeInterface</text></g><!--class PaymentFacadeImpl--><g id="elem_PaymentFacadeImpl"><rect codeLine="216" fill="#FFB6C1" height="32" id="PaymentFacadeImpl" rx="2.5" ry="2.5" style="stroke:#8B008B;stroke-width:0.5;" width="137" x="945.5" y="577.1699"/><ellipse cx="960.5" cy="593.1699" fill="#ADD1B2" rx="11" ry="11" style="stroke:#181818;stroke-width:1.0;"/><path d="M963.4688,598.8105 Q962.8906,599.1074 962.25,599.248 Q961.6094,599.4043 960.9063,599.4043 Q958.4063,599.4043 957.0781,597.7636 Q955.7656,596.1074 955.7656,592.9824 Q955.7656,589.8574 957.0781,588.2011 Q958.4063,586.5449 960.9063,586.5449 Q961.6094,586.5449 962.25,586.7011 Q962.9063,586.8574 963.4688,587.1543 L963.4688,589.873 Q962.8438,589.2949 962.25,589.0293 Q961.6563,588.748 961.0313,588.748 Q959.6875,588.748 959,589.8261 Q958.3125,590.8886 958.3125,592.9824 Q958.3125,595.0761 959,596.1543 Q959.6875,597.2168 961.0313,597.2168 Q961.6563,597.2168 962.25,596.9511 Q962.8438,596.6699 963.4688,596.0918 L963.4688,598.8105 Z " fill="#000000"/><text fill="#000000" font-family="sans-serif" font-size="14" lengthAdjust="spacing" textLength="105" x="974.5" y="598.6019">PaymentFacade</text></g><!--reverse link SharedBaseEntity to ClientAdmClientEntity--><g id="link_SharedBaseEntity_ClientAdmClientEntity"><path codeLine="56" d="M2159.6267,457.6984 C2146.7267,466.1184 2144.66,466.1399 2128,471.6699 C2099.96,480.9799 2091.06,474.3399 2062,479.6699 C1914.34,506.7699 1743.18,553.2399 1659.1,577.0899 " fill="none" id="SharedBaseEntity-backto-ClientAdmClientEntity" style="stroke:#696969;stroke-width:1.0;stroke-dasharray:7.0,7.0;"/><polygon fill="none" points="2174.7,447.8599,2156.3472,452.674,2162.9062,462.7228,2174.7,447.8599" style="stroke:#696969;stroke-width:1.0;"/></g><!--link ClientAdmClientRepository to ClientAdmClientModel--><g id="link_ClientAdmClientRepository_ClientAdmClientModel"><path codeLine="62" d="M1390.66,1001.6699 C1402.16,1001.6699 1413.66,1001.6699 1425.15,1001.6699 " fill="none" id="ClientAdmClientRepository-ClientAdmClientModel" style="stroke:#696969;stroke-width:1.0;"/></g><!--reverse link SharedUseCaseInterface to AddClientUseCase--><g id="link_SharedUseCaseInterface_AddClientUseCase"><path codeLine="69" d="M2308.5847,455.8579 C2291.8547,464.3379 2285.8,466.1799 2265,471.6699 C2246.87,476.4599 2196.68,469.3799 2181,479.6699 C2103.33,530.6399 2154.26,606.8599 2080,662.6699 C2018.33,709.0199 1802.59,743.8399 1684.94,759.8899 " fill="none" id="SharedUseCaseInterface-backto-AddClientUseCase" style="stroke:#696969;stroke-width:1.0;stroke-dasharray:7.0,7.0;"/><polygon fill="none" points="2324.64,447.7199,2305.872,450.5061,2311.2974,461.2097,2324.64,447.7199" style="stroke:#696969;stroke-width:1.0;"/></g><!--reverse link SharedUseCaseInterface to FindClientUseCase--><g id="link_SharedUseCaseInterface_FindClientUseCase"><path codeLine="70" d="M2309.0514,455.8999 C2292.2914,464.4899 2286.03,466.3699 2265,471.6699 C2217.47,483.6599 2202.95,469.4799 2155,479.6699 C1920.68,529.4899 1882.66,614.4699 1648,662.6699 C1618.34,668.7599 1539.52,658.0599 1512,670.6699 C1475.65,687.3299 1445.88,724.3799 1429.56,748.1299 " fill="none" id="SharedUseCaseInterface-backto-FindClientUseCase" style="stroke:#696969;stroke-width:1.0;stroke-dasharray:7.0,7.0;"/><polygon fill="none" points="2325.07,447.6899,2306.3147,450.5604,2311.7881,461.2394,2325.07,447.6899" style="stroke:#696969;stroke-width:1.0;"/></g><!--link AddClientUseCase to ClientAdmRepository--><g id="link_AddClientUseCase_ClientAdmRepository"><path codeLine="72" d="M1605.59,793.2099 C1603.75,821.2699 1600.43,871.9649 1597.5325,916.2161 C1597.5099,916.5619 1597.8793,910.92 1597.8567,911.2649 " fill="none" id="AddClientUseCase-to-ClientAdmRepository" style="stroke:#696969;stroke-width:1.0;"/><polygon fill="#696969" points="1597.4647,917.2521,1602.0442,908.5327,1597.7914,912.2628,1594.0613,908.01,1597.4647,917.2521" style="stroke:#696969;stroke-width:1.0;"/><text fill="#696969" font-family="DroidSansMono" font-size="10" lengthAdjust="spacing" textLength="71" x="1603" y="853.3599">persiste/busca</text></g><!--link FindClientUseCase to ClientAdmRepository--><g id="link_FindClientUseCase_ClientAdmRepository"><path codeLine="73" d="M1451.67,793.3499 C1496.79,820.9299 1569.14,865.7199 1573,871.6699 C1580.755,883.6374 1585.8438,897.5274 1589.1089,911.6688 C1589.5171,913.4365 1589.8967,915.2081 1590.2495,916.9804 C1590.2936,917.2019 1589.1873,911.5347 1589.2306,911.7562 " fill="none" id="FindClientUseCase-to-ClientAdmRepository" style="stroke:#696969;stroke-width:1.0;"/><polygon fill="#696969" points="1590.3806,917.645,1592.5814,908.0452,1589.4222,912.7377,1584.7297,909.5785,1590.3806,917.645" style="stroke:#696969;stroke-width:1.0;"/><text fill="#696969" font-family="DroidSansMono" font-size="10" lengthAdjust="spacing" textLength="28" x="1563" y="853.3599">busca</text></g><!--link ClientAdmClientEntity to AddClientUseCase--><g id="link_ClientAdmClientEntity_AddClientUseCase"><path codeLine="76" d="M1607,609.4399 C1607,640.7099 1607,706.1299 1607,742.1099 " fill="none" id="ClientAdmClientEntity-to-AddClientUseCase" style="stroke:#696969;stroke-width:1.0;stroke-dasharray:7.0,7.0;"/><polygon fill="#696969" points="1607,748.1099,1611,739.1099,1607,743.1099,1603,739.1099,1607,748.1099" style="stroke:#696969;stroke-width:1.0;"/><text fill="#696969" font-family="DroidSansMono" font-size="10" lengthAdjust="spacing" textLength="31" x="1608" y="659.3599">Criada</text></g><!--link ClientAdmClientEntity to FindClientUseCase--><g id="link_ClientAdmClientEntity_FindClientUseCase"><path codeLine="77" d="M1586.76,609.3099 C1567.12,624.2699 1536.72,648.1299 1512,670.6699 C1484.23,695.9999 1458.4684,723.0707 1439.5684,743.6507 " fill="none" id="ClientAdmClientEntity-to-FindClientUseCase" style="stroke:#696969;stroke-width:1.0;stroke-dasharray:7.0,7.0;"/><polygon fill="#696969" points="1435.51,748.0699,1444.5438,744.1467,1438.892,744.3872,1438.6515,738.7355,1435.51,748.0699" style="stroke:#696969;stroke-width:1.0;"/><text fill="#696969" font-family="DroidSansMono" font-size="10" lengthAdjust="spacing" textLength="50" x="1538" y="659.3599">Retornada</text></g><!--link ClientAdmClientEntity to ClientAdmClientRepository--><g id="link_ClientAdmClientEntity_ClientAdmClientRepository"><path codeLine="78" d="M1578.69,609.2599 C1558.23,619.4799 1529.62,632.3999 1503,639.6699 C1447.72,654.7599 1285.01,627.7799 1247,670.6699 C1163.54,764.8499 1263.2857,929.3419 1298.0057,980.6119 " fill="none" id="ClientAdmClientEntity-to-ClientAdmClientRepository" style="stroke:#696969;stroke-width:1.0;stroke-dasharray:7.0,7.0;"/><polygon fill="#696969" points="1301.37,985.5799,1299.6355,975.885,1298.5664,981.4399,1293.0115,980.3708,1301.37,985.5799" style="stroke:#696969;stroke-width:1.0;"/><text fill="#696969" font-family="DroidSansMono" font-size="10" lengthAdjust="spacing" textLength="72" x="1248" y="774.8599">Persistida/Lida</text></g><!--link ClientAdmRepository to ClientAdmClientGateway--><g id="link_ClientAdmRepository_ClientAdmClientGateway"><path codeLine="83" d="M1592,1041.8935 C1592,1042.8348 1592,1043.787 1592,1044.7494 C1592,1052.4486 1592,1060.8018 1592,1069.4499 C1592,1104.0424 1592,1125.3549 1592,1146.4199 " fill="none" id="ClientAdmRepository-to-ClientAdmClientGateway" style="stroke:#696969;stroke-width:1.0;stroke-dasharray:7.0,7.0;"/><polygon fill="none" points="1592,1164.4199,1598,1146.4199,1586,1146.4199,1592,1164.4199" style="stroke:#696969;stroke-width:1.0;"/><text fill="#696969" font-family="DroidSansMono" font-size="10" lengthAdjust="spacing" textLength="58" x="1593" y="1085.3599">implementa</text></g><!--reverse link ClientAdmFacadeInterface to ClientAdmFacadeImpl--><g id="link_ClientAdmFacadeInterface_ClientAdmFacadeImpl"><path codeLine="89" d="M1393.9367,465.4798 C1398.5067,495.8698 1406.15,546.6299 1410.73,577.0899 " fill="none" id="ClientAdmFacadeInterface-backto-ClientAdmFacadeImpl" style="stroke:#696969;stroke-width:1.0;"/><polygon fill="none" points="1391.26,447.6799,1388.0034,466.372,1399.87,464.5875,1391.26,447.6799" style="stroke:#696969;stroke-width:1.0;"/></g><!--link ClientAdmFacadeImpl to AddClientUseCase--><g id="link_ClientAdmFacadeImpl_AddClientUseCase"><path codeLine="90" d="M1464.98,609.1699 C1488.01,617.7099 1514.3,630.2499 1534,647.6699 C1565.81,675.7899 1585.546,715.6516 1596.566,742.4216 " fill="none" id="ClientAdmFacadeImpl-to-AddClientUseCase" style="stroke:#696969;stroke-width:1.0;"/><polygon fill="#696969" points="1598.85,747.9699,1599.1229,738.1248,1596.9467,743.3463,1591.7252,741.1701,1598.85,747.9699" style="stroke:#696969;stroke-width:1.0;"/></g><!--link ClientAdmFacadeImpl to FindClientUseCase--><g id="link_ClientAdmFacadeImpl_FindClientUseCase"><path codeLine="91" d="M1413.26,609.4399 C1413.8,640.7099 1414.9183,706.1308 1415.5283,742.1108 " fill="none" id="ClientAdmFacadeImpl-to-FindClientUseCase" style="stroke:#696969;stroke-width:1.0;"/><polygon fill="#696969" points="1415.63,748.1099,1419.4769,739.0434,1415.5452,743.1106,1411.478,739.179,1415.63,748.1099" style="stroke:#696969;stroke-width:1.0;"/></g><!--link ProductAdmProductRepository to ProductAdmProductModel--><g id="link_ProductAdmProductRepository_ProductAdmProductModel"><path codeLine="107" d="M259.84,1543.6699 C271.38,1543.6699 282.93,1543.6699 294.48,1543.6699 " fill="none" id="ProductAdmProductRepository-ProductAdmProductModel" style="stroke:#696969;stroke-width:1.0;"/></g><!--reverse link SharedUseCaseInterface to AddProductUseCaseAdm--><g id="link_SharedUseCaseInterface_AddProductUseCaseAdm"><path codeLine="114" d="M2301.4924,455.6632 C2253.9424,479.0832 2190,521.1299 2190,592.1699 C2190,592.1699 2190,592.1699 2190,1181.6699 C2190,1298.2899 1785.32,1236.2599 1669,1244.6699 C1633.17,1247.2599 409.47,1262.6099 376,1275.6699 C340.45,1289.5499 309.04,1321.6999 290.78,1343.4399 " fill="none" id="SharedUseCaseInterface-backto-AddProductUseCaseAdm" style="stroke:#696969;stroke-width:1.0;stroke-dasharray:7.0,7.0;"/><polygon fill="none" points="2317.64,447.7099,2298.8413,450.2806,2304.1435,461.0457,2317.64,447.7099" style="stroke:#696969;stroke-width:1.0;"/></g><!--reverse link SharedUseCaseInterface to CheckStockUseCaseAdm--><g id="link_SharedUseCaseInterface_CheckStockUseCaseAdm"><path codeLine="115" d="M2331.1937,462.5953 C2312.7237,489.9353 2287,535.3599 2287,592.1699 C2287,592.1699 2287,592.1699 2287,1181.6699 C2287,1236.3599 2249.04,1245.6099 2199,1267.6699 C2047.87,1334.2899 879.38,1358.4599 557.09,1363.8999 " fill="none" id="SharedUseCaseInterface-backto-CheckStockUseCaseAdm" style="stroke:#696969;stroke-width:1.0;stroke-dasharray:7.0,7.0;"/><polygon fill="none" points="2341.27,447.6799,2326.2219,459.2365,2336.1655,465.954,2341.27,447.6799" style="stroke:#696969;stroke-width:1.0;"/></g><!--link AddProductUseCaseAdm to ProductAdmRepository--><g id="link_AddProductUseCaseAdm_ProductAdmRepository"><path codeLine="117" d="M303.99,1388.7599 C327.35,1404.4399 361.23,1424.7499 394,1435.6699 C407.6,1440.1999 447.54,1433.8699 458,1443.6699 C462.0238,1447.4386 465.345,1451.7788 468.0757,1456.4927 C468.417,1457.0819 468.7492,1457.677 469.0723,1458.2775 C469.2338,1458.5778 469.3931,1458.8794 469.5502,1459.1824 C469.6287,1459.3338 466.9851,1454.1384 467.0625,1454.2905 " fill="none" id="AddProductUseCaseAdm-to-ProductAdmRepository" style="stroke:#696969;stroke-width:1.0;"/><polygon fill="#696969" points="469.7841,1459.6378,469.2665,1449.8025,467.5161,1455.1818,462.1369,1453.4314,469.7841,1459.6378" style="stroke:#696969;stroke-width:1.0;"/><text fill="#696969" font-family="DroidSansMono" font-size="10" lengthAdjust="spacing" textLength="71" x="395" y="1432.3599">persiste/busca</text></g><!--link CheckStockUseCaseAdm to ProductAdmRepository--><g id="link_CheckStockUseCaseAdm_ProductAdmRepository"><path codeLine="118" d="M475.25,1388.6899 C475.38,1400.2224 475.5519,1415.4043 475.7372,1431.7408 C475.8298,1439.9091 475.9259,1448.3661 476.0217,1456.7999 C476.0277,1457.327 476.0337,1457.854 476.0396,1458.3808 C476.0426,1458.6443 475.9775,1452.908 475.9804,1453.1714 " fill="none" id="CheckStockUseCaseAdm-to-ProductAdmRepository" style="stroke:#696969;stroke-width:1.0;"/><polygon fill="#696969" points="476.0486,1459.171,479.9461,1450.1261,475.9918,1454.1713,471.9466,1450.217,476.0486,1459.171" style="stroke:#696969;stroke-width:1.0;"/><text fill="#696969" font-family="DroidSansMono" font-size="10" lengthAdjust="spacing" textLength="28" x="476" y="1432.3599">busca</text></g><!--link ProductAdmProductEntity to AddProductUseCaseAdm--><g id="link_ProductAdmProductEntity_AddProductUseCaseAdm"><path codeLine="121" d="M223.5,1196.6899 C233.22,1229.1299 254.4965,1300.1128 265.7965,1337.7928 " fill="none" id="ProductAdmProductEntity-to-AddProductUseCaseAdm" style="stroke:#696969;stroke-width:1.0;stroke-dasharray:7.0,7.0;"/><polygon fill="#696969" points="267.52,1343.5399,268.7661,1333.7702,266.0837,1338.7506,261.1033,1336.0682,267.52,1343.5399" style="stroke:#696969;stroke-width:1.0;"/><text fill="#696969" font-family="DroidSansMono" font-size="10" lengthAdjust="spacing" textLength="31" x="244" y="1264.3599">Criada</text></g><!--link ProductAdmProductEntity to CheckStockUseCaseAdm--><g id="link_ProductAdmProductEntity_CheckStockUseCaseAdm"><path codeLine="122" d="M247.85,1196.7199 C280.18,1214.0799 333.61,1244.2899 376,1275.6699 C404.49,1296.7599 430.0077,1320.4073 449.3677,1339.4073 " fill="none" id="ProductAdmProductEntity-to-CheckStockUseCaseAdm" style="stroke:#696969;stroke-width:1.0;stroke-dasharray:7.0,7.0;"/><polygon fill="#696969" points="453.65,1343.6099,450.0284,1334.4511,450.0814,1340.1077,444.4248,1340.1608,453.65,1343.6099" style="stroke:#696969;stroke-width:1.0;"/><text fill="#696969" font-family="DroidSansMono" font-size="10" lengthAdjust="spacing" textLength="30" x="364" y="1264.3599">Usada</text><text fill="#696969" font-family="DroidSansMono" font-size="10" lengthAdjust="spacing" textLength="3" x="394" y="1264.3599">&#160;</text><text fill="#696969" font-family="DroidSansMono" font-size="10" lengthAdjust="spacing" textLength="10" x="397" y="1264.3599">p/</text><text fill="#696969" font-family="DroidSansMono" font-size="10" lengthAdjust="spacing" textLength="3" x="407" y="1264.3599">&#160;</text><text fill="#696969" font-family="DroidSansMono" font-size="10" lengthAdjust="spacing" textLength="39" x="410" y="1264.3599">estoque</text></g><!--link ProductAdmProductEntity to ProductAdmProductRepository--><g id="link_ProductAdmProductEntity_ProductAdmProductRepository"><path codeLine="123" d="M186.63,1196.7199 C157.92,1212.0599 117.85,1238.8299 100,1275.6699 C73.45,1330.4699 84.59,1353.7599 100,1412.6699 C111.86,1457.9999 139.8271,1499.4196 157.3171,1522.6096 " fill="none" id="ProductAdmProductEntity-to-ProductAdmProductRepository" style="stroke:#696969;stroke-width:1.0;stroke-dasharray:7.0,7.0;"/><polygon fill="#696969" points="160.93,1527.3999,158.7042,1517.8058,157.9193,1523.408,152.3171,1522.623,160.93,1527.3999" style="stroke:#696969;stroke-width:1.0;"/><text fill="#696969" font-family="DroidSansMono" font-size="10" lengthAdjust="spacing" textLength="72" x="101" y="1370.3599">Persistida/Lida</text></g><!--link ProductAdmRepository to ProductAdmProductGateway--><g id="link_ProductAdmRepository_ProductAdmProductGateway"><path codeLine="128" d="M477,1583.8506 C477,1584.0774 477,1584.3049 477,1584.533 C477,1591.8315 477,1599.753 477,1607.9599 C477,1640.7874 477,1660.1799 477,1680.5199 " fill="none" id="ProductAdmRepository-to-ProductAdmProductGateway" style="stroke:#696969;stroke-width:1.0;stroke-dasharray:7.0,7.0;"/><polygon fill="none" points="477,1698.5199,483,1680.5199,471,1680.5199,477,1698.5199" style="stroke:#696969;stroke-width:1.0;"/><text fill="#696969" font-family="DroidSansMono" font-size="10" lengthAdjust="spacing" textLength="58" x="478" y="1619.3599">implementa</text></g><!--reverse link ProductAdmFacadeInterface to ProductAdmFacadeImpl--><g id="link_ProductAdmFacadeInterface_ProductAdmFacadeImpl"><path codeLine="134" d="M452,1035.7599 C452,1069.1999 452,1131.2099 452,1164.6199 " fill="none" id="ProductAdmFacadeInterface-backto-ProductAdmFacadeImpl" style="stroke:#696969;stroke-width:1.0;"/><polygon fill="none" points="452,1017.7599,446,1035.7599,458,1035.7599,452,1017.7599" style="stroke:#696969;stroke-width:1.0;"/></g><!--link ProductAdmFacadeImpl to AddProductUseCaseAdm--><g id="link_ProductAdmFacadeImpl_AddProductUseCaseAdm"><path codeLine="135" d="M394.47,1196.7799 C363.83,1207.6099 327.86,1225.2399 305,1252.6699 C283.34,1278.6599 277.228,1312.629 275.258,1337.279 " fill="none" id="ProductAdmFacadeImpl-to-AddProductUseCaseAdm" style="stroke:#696969;stroke-width:1.0;"/><polygon fill="#696969" points="274.78,1343.2599,279.4843,1334.6072,275.1783,1338.2758,271.5097,1333.9698,274.78,1343.2599" style="stroke:#696969;stroke-width:1.0;"/></g><!--link ProductAdmFacadeImpl to CheckStockUseCaseAdm--><g id="link_ProductAdmFacadeImpl_CheckStockUseCaseAdm"><path codeLine="136" d="M453.88,1196.6899 C457.95,1229.1299 466.8242,1299.9064 471.5442,1337.5864 " fill="none" id="ProductAdmFacadeImpl-to-CheckStockUseCaseAdm" style="stroke:#696969;stroke-width:1.0;"/><polygon fill="#696969" points="472.29,1343.5399,475.1403,1334.1125,471.6685,1338.5787,467.2024,1335.1069,472.29,1343.5399" style="stroke:#696969;stroke-width:1.0;"/></g><!--link StoreCatalogProductRepository to StoreCatalogProductModel--><g id="link_StoreCatalogProductRepository_StoreCatalogProductModel"><path codeLine="152" d="M2770.84,770.6699 C2782.38,770.6699 2793.93,770.6699 2805.48,770.6699 " fill="none" id="StoreCatalogProductRepository-StoreCatalogProductModel" style="stroke:#696969;stroke-width:1.0;"/></g><!--reverse link SharedUseCaseInterface to FindAllProductsUseCase--><g id="link_SharedUseCaseInterface_FindAllProductsUseCase"><path codeLine="159" d="M2390.3614,457.4443 C2434.3114,485.8243 2514.65,537.6999 2565.51,570.5499 " fill="none" id="SharedUseCaseInterface-backto-FindAllProductsUseCase" style="stroke:#696969;stroke-width:1.0;stroke-dasharray:7.0,7.0;"/><polygon fill="none" points="2375.24,447.6799,2387.1066,462.4848,2393.6162,452.4038,2375.24,447.6799" style="stroke:#696969;stroke-width:1.0;"/></g><!--reverse link SharedUseCaseInterface to FindProductUseCaseSC--><g id="link_SharedUseCaseInterface_FindProductUseCaseSC"><path codeLine="160" d="M2414.6475,453.0987 C2440.3875,461.1587 2456.14,465.3299 2486,471.6699 C2586.04,492.9099 2620.95,460.2499 2714,502.6699 C2748.3,518.2999 2779.57,549.3599 2798.2,570.4499 " fill="none" id="SharedUseCaseInterface-backto-FindProductUseCaseSC" style="stroke:#696969;stroke-width:1.0;stroke-dasharray:7.0,7.0;"/><polygon fill="none" points="2397.47,447.7199,2412.8546,458.8246,2416.4405,447.3729,2397.47,447.7199" style="stroke:#696969;stroke-width:1.0;"/></g><!--link FindAllProductsUseCase to StoreCatalogRepository--><g id="link_FindAllProductsUseCase_StoreCatalogRepository"><path codeLine="162" d="M2593.64,615.8799 C2589.93,631.1599 2584.96,652.1199 2581,670.6699 C2580.4338,673.323 2579.8664,676.0178 2579.3002,678.7394 C2579.0171,680.1002 2578.7342,681.4678 2578.4519,682.8402 C2578.3108,683.5264 2578.1698,684.2138 2578.029,684.9022 C2577.9586,685.2464 2577.8882,685.5909 2577.8179,685.9356 C2577.7827,686.1079 2578.9455,680.4011 2578.9104,680.5735 " fill="none" id="FindAllProductsUseCase-to-StoreCatalogRepository" style="stroke:#696969;stroke-width:1.0;"/><polygon fill="#696969" points="2577.7124,686.4527,2583.4288,678.4326,2578.7107,681.5534,2575.5899,676.8353,2577.7124,686.4527" style="stroke:#696969;stroke-width:1.0;"/><text fill="#696969" font-family="DroidSansMono" font-size="10" lengthAdjust="spacing" textLength="28" x="2586" y="659.3599">busca</text></g><!--link FindProductUseCaseSC to StoreCatalogRepository--><g id="link_FindProductUseCaseSC_StoreCatalogRepository"><path codeLine="163" d="M2772.23,615.6799 C2754.44,623.8999 2733.51,632.9099 2714,639.6699 C2674.58,653.3299 2663.73,653.6499 2623,662.6699 C2604.45,666.7799 2594.45,657.2399 2581,670.6699 C2577.0988,674.5649 2573.8698,679.0002 2571.2069,683.7839 C2570.874,684.3819 2570.55,684.9853 2570.2346,685.5937 C2570.0769,685.898 2572.6052,680.8372 2572.4518,681.1439 " fill="none" id="FindProductUseCaseSC-to-StoreCatalogRepository" style="stroke:#696969;stroke-width:1.0;"/><polygon fill="#696969" points="2569.768,686.5102,2577.3713,680.25,2572.0045,682.0383,2570.2163,676.6716,2569.768,686.5102" style="stroke:#696969;stroke-width:1.0;"/><text fill="#696969" font-family="DroidSansMono" font-size="10" lengthAdjust="spacing" textLength="28" x="2689" y="659.3599">busca</text></g><!--link StoreCatalogProductEntity to FindAllProductsUseCase--><g id="link_StoreCatalogProductEntity_FindAllProductsUseCase"><path codeLine="166" d="M2812.7,447.6699 C2785.83,460.9799 2746.43,481.5299 2714,502.6699 C2681.57,523.8099 2651.4338,547.8022 2628.7238,566.7822 " fill="none" id="StoreCatalogProductEntity-to-FindAllProductsUseCase" style="stroke:#696969;stroke-width:1.0;stroke-dasharray:7.0,7.0;"/><polygon fill="#696969" points="2624.12,570.6299,2633.5909,567.9276,2627.9565,567.4235,2628.4606,561.7891,2624.12,570.6299" style="stroke:#696969;stroke-width:1.0;"/><text fill="#696969" font-family="DroidSansMono" font-size="10" lengthAdjust="spacing" textLength="50" x="2749" y="491.3599">Retornada</text></g><!--link StoreCatalogProductEntity to FindProductUseCaseSC--><g id="link_StoreCatalogProductEntity_FindProductUseCaseSC"><path codeLine="167" d="M2841.37,447.6799 C2836.38,476.0599 2826.5962,531.7901 2820.8362,564.6401 " fill="none" id="StoreCatalogProductEntity-to-FindProductUseCaseSC" style="stroke:#696969;stroke-width:1.0;stroke-dasharray:7.0,7.0;"/><polygon fill="#696969" points="2819.8,570.5499,2825.2943,562.376,2820.6635,565.625,2817.4145,560.9943,2819.8,570.5499" style="stroke:#696969;stroke-width:1.0;"/><text fill="#696969" font-family="DroidSansMono" font-size="10" lengthAdjust="spacing" textLength="50" x="2836" y="491.3599">Retornada</text></g><!--link StoreCatalogProductEntity to StoreCatalogProductRepository--><g id="link_StoreCatalogProductEntity_StoreCatalogProductRepository"><path codeLine="168" d="M2868.65,447.9199 C2885.97,460.2599 2907.65,479.3699 2917,502.6699 C2939.67,559.1799 2954.69,591.8499 2917,639.6699 C2880.5,685.9799 2839.79,642.4899 2788,670.6699 C2748.59,692.1199 2716.9227,727.6603 2699.3727,749.6503 " fill="none" id="StoreCatalogProductEntity-to-StoreCatalogProductRepository" style="stroke:#696969;stroke-width:1.0;stroke-dasharray:7.0,7.0;"/><polygon fill="#696969" points="2695.63,754.3399,2704.3704,749.8007,2698.7489,750.4319,2698.1177,744.8104,2695.63,754.3399" style="stroke:#696969;stroke-width:1.0;"/><text fill="#696969" font-family="DroidSansMono" font-size="10" lengthAdjust="spacing" textLength="20" x="2940" y="597.3599">Lida</text></g><!--link StoreCatalogRepository to StoreCatalogProductGateway--><g id="link_StoreCatalogRepository_StoreCatalogProductGateway"><path codeLine="173" d="M2563.3829,811.2028 C2563.393,811.4904 2563.4031,811.7791 2563.4132,812.0689 C2563.4334,812.6486 2563.4538,813.2327 2563.4744,813.8211 C2563.6387,818.5283 2563.8127,823.5119 2563.9942,828.7086 C2564.3572,839.1022 2564.75,850.3486 2565.155,861.9424 C2566.775,908.3174 2567.9603,942.2609 2568.8403,967.4009 " fill="none" id="StoreCatalogRepository-to-StoreCatalogProductGateway" style="stroke:#696969;stroke-width:1.0;stroke-dasharray:7.0,7.0;"/><polygon fill="none" points="2569.47,985.3899,2574.8366,967.191,2562.844,967.6108,2569.47,985.3899" style="stroke:#696969;stroke-width:1.0;"/><text fill="#696969" font-family="DroidSansMono" font-size="10" lengthAdjust="spacing" textLength="58" x="2566" y="853.3599">implementa</text></g><!--reverse link StoreCatalogFacadeInterface to StoreCatalogFacadeImpl--><g id="link_StoreCatalogFacadeInterface_StoreCatalogFacadeImpl"><path codeLine="179" d="M2609,248.7899 C2609,288.2599 2609,376.1099 2609,415.5699 " fill="none" id="StoreCatalogFacadeInterface-backto-StoreCatalogFacadeImpl" style="stroke:#696969;stroke-width:1.0;"/><polygon fill="none" points="2609,230.7899,2603,248.7899,2615,248.7899,2609,230.7899" style="stroke:#696969;stroke-width:1.0;"/></g><!--link StoreCatalogFacadeImpl to FindAllProductsUseCase--><g id="link_StoreCatalogFacadeImpl_FindAllProductsUseCase"><path codeLine="180" d="M2608.06,447.6799 C2606.28,476.0599 2602.7955,531.7117 2600.7355,564.5617 " fill="none" id="StoreCatalogFacadeImpl-to-FindAllProductsUseCase" style="stroke:#696969;stroke-width:1.0;"/><polygon fill="#696969" points="2600.36,570.5499,2604.9154,561.8179,2600.6729,565.5597,2596.9311,561.3172,2600.36,570.5499" style="stroke:#696969;stroke-width:1.0;"/></g><!--link StoreCatalogFacadeImpl to FindProductUseCaseSC--><g id="link_StoreCatalogFacadeImpl_FindProductUseCaseSC"><path codeLine="181" d="M2669.85,447.6899 C2691.51,454.9799 2715.18,465.3499 2734,479.6699 C2766.51,504.3999 2788.9927,540.2232 2802.4527,565.3032 " fill="none" id="StoreCatalogFacadeImpl-to-FindProductUseCaseSC" style="stroke:#696969;stroke-width:1.0;"/><polygon fill="#696969" points="2805.29,570.5899,2804.5585,560.7682,2802.9256,566.1843,2797.5095,564.5513,2805.29,570.5899" style="stroke:#696969;stroke-width:1.0;"/></g><!--link PaymentTransactionRepository to PaymentTransactionModel--><g id="link_PaymentTransactionRepository_PaymentTransactionModel"><path codeLine="197" d="M873.36,1001.6699 C884.88,1001.6699 896.41,1001.6699 907.94,1001.6699 " fill="none" id="PaymentTransactionRepository-PaymentTransactionModel" style="stroke:#696969;stroke-width:1.0;"/></g><!--reverse link SharedUseCaseInterface to ProcessPaymentUseCase--><g id="link_SharedUseCaseInterface_ProcessPaymentUseCase"><path codeLine="202" d="M2309.5637,456.1303 C2292.8037,464.8803 2286.29,466.7699 2265,471.6699 C2211.38,484.0199 1325.38,480.5299 1275,502.6699 C1213.28,529.7899 1079.55,689.0999 1031.58,747.8899 " fill="none" id="SharedUseCaseInterface-backto-ProcessPaymentUseCase" style="stroke:#696969;stroke-width:1.0;stroke-dasharray:7.0,7.0;"/><polygon fill="none" points="2325.52,447.7999,2306.7869,450.8115,2312.3405,461.4491,2325.52,447.7999" style="stroke:#696969;stroke-width:1.0;"/></g><!--link ProcessPaymentUseCase to PaymentRepository--><g id="link_ProcessPaymentUseCase_PaymentRepository"><path codeLine="203" d="M1036.94,793.1799 C1055.51,812.0099 1080.69,841.0899 1094,871.6699 C1099.69,884.7474 1103.73,899.2005 1106.5875,913.5602 C1106.7661,914.4577 1106.9401,915.3548 1107.1095,916.2512 C1107.1943,916.6994 1106.1908,911.2467 1106.2733,911.6945 " fill="none" id="ProcessPaymentUseCase-to-PaymentRepository" style="stroke:#696969;stroke-width:1.0;"/><polygon fill="#696969" points="1107.3604,917.5952,1109.6635,908.0194,1106.4545,912.678,1101.7959,909.4689,1107.3604,917.5952" style="stroke:#696969;stroke-width:1.0;"/><text fill="#696969" font-family="DroidSansMono" font-size="10" lengthAdjust="spacing" textLength="71" x="1090" y="853.3599">persiste/busca</text></g><!--link PaymentTransaction to ProcessPaymentUseCase--><g id="link_PaymentTransaction_ProcessPaymentUseCase"><path codeLine="206" d="M814.96,609.4399 C853.81,640.7099 937.846,708.3677 982.546,744.3477 " fill="none" id="PaymentTransaction-to-ProcessPaymentUseCase" style="stroke:#696969;stroke-width:1.0;stroke-dasharray:7.0,7.0;"/><polygon fill="#696969" points="987.22,748.1099,982.7172,739.3506,983.325,744.9747,977.7009,745.5826,987.22,748.1099" style="stroke:#696969;stroke-width:1.0;"/><text fill="#696969" font-family="DroidSansMono" font-size="10" lengthAdjust="spacing" textLength="86" x="880" y="659.3599">Criada/Atualizada</text></g><!--link PaymentTransaction to PaymentTransactionRepository--><g id="link_PaymentTransaction_PaymentTransactionRepository"><path codeLine="207" d="M795.2,609.6099 C791.87,674.1399 779.3793,915.9179 776.0893,979.6579 " fill="none" id="PaymentTransaction-to-PaymentTransactionRepository" style="stroke:#696969;stroke-width:1.0;stroke-dasharray:7.0,7.0;"/><polygon fill="#696969" points="775.78,985.6499,780.2386,976.8681,776.0377,980.6565,772.2492,976.4557,775.78,985.6499" style="stroke:#696969;stroke-width:1.0;"/><text fill="#696969" font-family="DroidSansMono" font-size="10" lengthAdjust="spacing" textLength="72" x="793" y="774.8599">Persistida/Lida</text></g><!--link PaymentRepository to PaymentPaymentGateway--><g id="link_PaymentRepository_PaymentPaymentGateway"><path codeLine="212" d="M1102.1266,1041.6995 C1102.0597,1041.9156 1101.9925,1042.1319 1101.9251,1042.3485 C1101.6555,1043.2147 1101.3827,1044.0843 1101.1069,1044.956 C1098.9,1051.9299 1096.4975,1059.0424 1094,1065.6699 C1080.34,1101.8999 1068.5898,1126.7602 1057.7898,1148.3602 " fill="none" id="PaymentRepository-to-PaymentPaymentGateway" style="stroke:#696969;stroke-width:1.0;stroke-dasharray:7.0,7.0;"/><polygon fill="none" points="1049.74,1164.4599,1063.1564,1151.0435,1052.4233,1145.6769,1049.74,1164.4599" style="stroke:#696969;stroke-width:1.0;"/><text fill="#696969" font-family="DroidSansMono" font-size="10" lengthAdjust="spacing" textLength="58" x="1091" y="1085.3599">implementa</text></g><!--reverse link PaymentFacadeInterface to PaymentFacadeImpl--><g id="link_PaymentFacadeInterface_PaymentFacadeImpl"><path codeLine="218" d="M1014,465.6799 C1014,496.0699 1014,546.6299 1014,577.0899 " fill="none" id="PaymentFacadeInterface-backto-PaymentFacadeImpl" style="stroke:#696969;stroke-width:1.0;"/><polygon fill="none" points="1014,447.6799,1008,465.6799,1020,465.6799,1014,447.6799" style="stroke:#696969;stroke-width:1.0;"/></g><!--link PaymentFacadeImpl to ProcessPaymentUseCase--><g id="link_PaymentFacadeImpl_ProcessPaymentUseCase"><path codeLine="219" d="M1014,609.4399 C1014,640.7099 1014,706.1299 1014,742.1099 " fill="none" id="PaymentFacadeImpl-to-ProcessPaymentUseCase" style="stroke:#696969;stroke-width:1.0;"/><polygon fill="#696969" points="1014,748.1099,1018,739.1099,1014,743.1099,1010,739.1099,1014,748.1099" style="stroke:#696969;stroke-width:1.0;"/></g><!--link StoreCatalogProductGateway to ProductAdmFacadeInterface--><g id="link_StoreCatalogProductGateway_ProductAdmFacadeInterface"><path codeLine="229" d="M2545.68,985.5299 C2499.43,955.9299 2394.61,893.9399 2296,871.6699 C2240.59,859.1599 800.47,831.7199 661,871.6699 C582.13,894.2699 508.5394,952.1663 474.4094,981.6663 " fill="none" id="StoreCatalogProductGateway-to-ProductAdmFacadeInterface" style="stroke:#696969;stroke-width:1.0;stroke-dasharray:7.0,7.0;"/><polygon fill="#696969" points="469.87,985.5899,479.2947,982.7308,473.6528,982.3203,474.0633,976.6783,469.87,985.5899" style="stroke:#696969;stroke-width:1.0;"/><text fill="#696969" font-family="DroidSansMono" font-size="10" lengthAdjust="spacing" textLength="18" x="1312.5" y="846.3599">Usa</text><text fill="#696969" font-family="DroidSansMono" font-size="10" lengthAdjust="spacing" textLength="3" x="1330.5" y="846.3599">&#160;</text><text fill="#696969" font-family="DroidSansMono" font-size="10" lengthAdjust="spacing" textLength="22" x="1333.5" y="846.3599">para</text><text fill="#696969" font-family="DroidSansMono" font-size="10" lengthAdjust="spacing" textLength="3" x="1355.5" y="846.3599">&#160;</text><text fill="#696969" font-family="DroidSansMono" font-size="10" lengthAdjust="spacing" textLength="45" x="1358.5" y="846.3599">consultar</text><text fill="#696969" font-family="DroidSansMono" font-size="10" lengthAdjust="spacing" textLength="38" x="1297" y="859.9799">(Inje&#231;&#227;o</text><text fill="#696969" font-family="DroidSansMono" font-size="10" lengthAdjust="spacing" textLength="3" x="1335" y="859.9799">&#160;</text><text fill="#696969" font-family="DroidSansMono" font-size="10" lengthAdjust="spacing" textLength="12" x="1338" y="859.9799">de</text><text fill="#696969" font-family="DroidSansMono" font-size="10" lengthAdjust="spacing" textLength="3" x="1350" y="859.9799">&#160;</text><text fill="#696969" font-family="DroidSansMono" font-size="10" lengthAdjust="spacing" textLength="66" x="1353" y="859.9799">Depend&#234;ncia)</text></g><!--link OrderOrchestrator to ClientAdmFacadeInterface--><g id="link_OrderOrchestrator_ClientAdmFacadeInterface"><path codeLine="234" d="M1080.51,248.6699 C1098.95,258.1099 1118.87,268.5699 1137,278.6699 C1222.48,326.2699 1316.0164,384.5071 1360.2764,412.4471 " fill="none" id="OrderOrchestrator-to-ClientAdmFacadeInterface" style="stroke:#696969;stroke-width:1.0;"/><polygon fill="#696969" points="1365.35,415.6499,1359.8748,407.4632,1361.122,412.9809,1355.6043,414.2281,1365.35,415.6499" style="stroke:#696969;stroke-width:1.0;"/><text fill="#696969" font-family="DroidSansMono" font-size="10" lengthAdjust="spacing" textLength="9" x="1158" y="290.3599">1.</text><text fill="#696969" font-family="DroidSansMono" font-size="10" lengthAdjust="spacing" textLength="3" x="1167" y="290.3599">&#160;</text><text fill="#696969" font-family="DroidSansMono" font-size="10" lengthAdjust="spacing" textLength="62" x="1170" y="290.3599">Busca/valida</text><text fill="#696969" font-family="DroidSansMono" font-size="10" lengthAdjust="spacing" textLength="3" x="1232" y="290.3599">&#160;</text><text fill="#696969" font-family="DroidSansMono" font-size="10" lengthAdjust="spacing" textLength="34" x="1235" y="290.3599">Cliente</text></g><!--link OrderOrchestrator to ProductAdmFacadeInterface--><g id="link_OrderOrchestrator_ProductAdmFacadeInterface"><path codeLine="235" d="M892.72,239.2999 C735.44,273.4899 481,342.4299 481,430.6699 C481,430.6699 481,430.6699 481,771.6699 C481,852.8199 464.0668,943.0046 456.4868,979.6046 " fill="none" id="OrderOrchestrator-to-ProductAdmFacadeInterface" style="stroke:#696969;stroke-width:1.0;"/><polygon fill="#696969" points="455.27,985.4799,461.0121,977.4781,456.284,980.5838,453.1783,975.8557,455.27,985.4799" style="stroke:#696969;stroke-width:1.0;"/><text fill="#696969" font-family="DroidSansMono" font-size="10" lengthAdjust="spacing" textLength="9" x="482" y="597.3599">2.</text><text fill="#696969" font-family="DroidSansMono" font-size="10" lengthAdjust="spacing" textLength="3" x="491" y="597.3599">&#160;</text><text fill="#696969" font-family="DroidSansMono" font-size="10" lengthAdjust="spacing" textLength="38" x="494" y="597.3599">Reserva</text><text fill="#696969" font-family="DroidSansMono" font-size="10" lengthAdjust="spacing" textLength="3" x="532" y="597.3599">&#160;</text><text fill="#696969" font-family="DroidSansMono" font-size="10" lengthAdjust="spacing" textLength="39" x="535" y="597.3599">Estoque</text></g><!--link OrderOrchestrator to PaymentFacadeInterface--><g id="link_OrderOrchestrator_PaymentFacadeInterface"><path codeLine="236" d="M1014,248.7899 C1014,296.1399 1014,375.2599 1014,409.6499 " fill="none" id="OrderOrchestrator-to-PaymentFacadeInterface" style="stroke:#696969;stroke-width:1.0;"/><polygon fill="#696969" points="1014,415.6499,1018,406.6499,1014,410.6499,1010,406.6499,1014,415.6499" style="stroke:#696969;stroke-width:1.0;"/><text fill="#696969" font-family="DroidSansMono" font-size="10" lengthAdjust="spacing" textLength="9" x="1015" y="290.3599">3.</text><text fill="#696969" font-family="DroidSansMono" font-size="10" lengthAdjust="spacing" textLength="3" x="1024" y="290.3599">&#160;</text><text fill="#696969" font-family="DroidSansMono" font-size="10" lengthAdjust="spacing" textLength="43" x="1027" y="290.3599">Processa</text><text fill="#696969" font-family="DroidSansMono" font-size="10" lengthAdjust="spacing" textLength="3" x="1070" y="290.3599">&#160;</text><text fill="#696969" font-family="DroidSansMono" font-size="10" lengthAdjust="spacing" textLength="55" x="1073" y="290.3599">Pagamento</text></g><text fill="#000000" font-family="sans-serif" font-size="14" lengthAdjust="spacing" textLength="774" x="1126" y="1816.6358">Rastreamento das Entidades: Setas tracejadas indicam onde as entidades s&#227;o usadas (casos de uso e reposit&#243;rios).</text><!--SRC=[jLhDSjiu4hxhANgzXyYr8tapktjHPLnBIqfAjPRb4krCJTLS41AH6PE41Y2TE1cVzxIdhNs2FKpLLCrf7a4lDWt-Y201aBJbw61BGFU7Rg31_Xe42KFsCGe-1V461dyAOYzCVGgl2FTkWeWazCGflvqE1ZS1zj5eczn3HADtb8k1k0tYBU4a0f- -9scOND5FYHC6cpYYSG8U_g5yC7W1ez48fglrt8KpnvrFuFNrnMm5qtDdlOBXsTgvcAvEBXttQdv-B6KLO8z5MnPBj2y3mCyPupxbKnOo3ZF2RzqGhNl3oNtUIxpR3MTfxESItzy42NKZTaiXwtSuPnyBvI3QgsNDhrcSN928meopm7T9B9OiPlL-D_XCuULVwurrl8UwlvbN2_b_xS3AXUNklxFhS_modAsMk_zSB5Pkq-KjEa4sjDFX1qM7KoyXyIQa1q-JYXh8zNjFF1lgYkEOr0Xv7cnkaX-e3B0wfXSI8InuItGxJeWTy3A8RoNSO9042Jhhy9zID3r9EG6vMk7kjoJmv7S_3Gc2qeI4DyGdC9o6bCIG1NI2avLo2d-1UPm4Fl6fE1vuP9i4B8Or4GcdH0Om0v-8IcO2Bi89I3ZEo0SY-uBOn-4YO37k3VnDIraGk_ypI4KcDVI8O0Bt23OmeBXOMoQ2PFSx3vWu7Wy6vOeVETiGyNQ_eF8Hpb4s4I_WvHZS6yAfZru4yMS24JhDv4noXi43RX2XtdlKzFDutUCLQl-YFAOX3Fyfij_7HzBMeYzV2VcfLll8sMmutM38h1bB5cMxecOMs4FbYtnqHWILqvVSAwfLOrDyuRybOKfNxpxW0YaQjNQJkTU2JX7LP6YpArEN0PHFxNUF-nHQtuvX6WQus2DdjeJXERaZCSQOcv8xUdm0ydxTbhlVCO3PH1acyod_wVYHicpxBtjjdqKaYEiAiwnDKLFctSk4nZHRb74YwfhvbyQAoOzH0iRfTlppgNsj7reCBpO6u_SmNCJlEJckcxAk-jiSYPXFGuiVIzdNebkPO06eR6YR3CNIKRi9RVEH2egF3beteuXeOPu2n_TpoK8iqsqsmgjNLTku60NzXTDJ4-PhVCpfe5ghHAqQ6x0rNCsUMj0OjspvqKVjhzjkmsXqQeoq2MoHwmG2wT2xL7YamnmxZAvT-_42riWLrdDdER-uMi5i3lX_CNDcypwxRdogUuIF3nvW1kgfh_ioWJL5u-F-6FPjC87BV1enGPwS1mhYGnKS5OqvUeF9vIF11u7p3XDodXCRZuDIfBuHbBoGInPYfirST9cTKumV- -nZBAFCh8_EoHHCeprxgUzinQtN1BCqXI7E6STfRNYKzqwHytOvjHUk9prRfsbRDsID-kYLFM9jWy6hdqUZJYX3VxPvcc7SIqcBtSOgF1oMyFysXakEdD8hClvRYiGLbdAvywoFJtddGoeIP63FIm2KORC5AdxZ360oXtuaeD9fOm7RNAf10ohTujlXwRo2xChdfKcrXAvPP4tffRgUqpKCIrPlaSCLxx2aRsQlO3fJUo7QoEtrLiaEy_nUj7Sd-EaDzMxTX7ctAhBMMY1NxHqvNhUhVwus3jwktZsyV58OewyrnnjDQO5wdZnlsNXbfjUTCsRxDXIZNnEubaKhR4-0YeJzbDBUU6sRvVcoVpLAP_elHDNyhzbeOW36TTrJ01l4eIIWmkt30fhITHfWxJNj_gQm6K6cRyii6TE_4Q1LNo40MdJtqpH5j4O4zXlogMJWxsF0CJY5AKb8o3OmlDpzAWJTiAzn0b0RAZ_Oa2tbs5y6hQbVbNryybUrdotzgw1F8W06gvv00Gme5XBGAYcFtxhiwKi4LA1sAY3fhXE6nMYYMPRhNMLjZZtzwdq3qz2RtMc9AzlRs835giVL_ThWZ-035WFaKyCIaAP4RhJYaHXF8GFMZRWlt0s-sQhtRZ3DnQT1jM-S2Hp40rJmfp01Wt4cBc1Ps3qRiCCSoWTKv3wCG9Tld8VR-qqF0LtSXg8nWvQHScvW0Ud0K6jzFTmVezsCx-SzBFZ762x9VVO6TEXyJaEOoXSrNuCR5CFaXAqOikUBWKAyZHDWBCQ2UFAjsBvkphMkgfw33W9oj2uIeDfHFmdGhB7o01N3S1oW0TdE0re4vO50Xq6zJmHod7OEW47iKI7giYLtrtjafguwMaY0MRj_fZRhP_MojjwjTVUJgcPj1ShIr61JMJ6VE4bAmk2pLZnRmDg2u1aBtNoOxjnMarDLwpqcruprhKdvuE8sH-jLsQgYZRBMs6NS7AgaGRVrNDiyJ57Mji9elUKvaHvzUivvMcfuJ6QIrr8M5rVpDsjdz-_T_-OkJDVNquMpSELkMi-Lsobl0mAv6oA_d_8LZIkmwqNr5aCg40HyLjRx8C-dXl8M2NXOw1DUdb2T-Dar3tcBmq9AooWUStcBf7PMrLpbx00Cyb5OBD8mmO5-Z35lVQ3PxfJtE6PqIsD_zsli1UIujBz8ox3YQ9FSp3xZC2GeYU6N0GPXAjivi1mxAbuML9USygDObYOdAtar9h_8GkNuAketS24DMIAsVE6GnNScl-8uCr88fm3-d5sPcJ9EmkhGGnUhlR3KP-Fb6Cxae_da3X-HFYb4QGjOszn-EyPAGb1-Hs2k72zQWCpxS5AyZf5xYg3G9h-iCtZu0m00]--></g></svg>